<?xml version="1.0" encoding="UTF-8" standalone="no"?>


<svg
   width="148.54829mm"
   height="11.210997mm"
   viewBox="0 0 148.54829 11.210997"
   version="1.1"
   id="svg8"
   inkscape:version="0.92.2 5c3e80d, 2017-08-06"
   sodipodi:docname="Fueled By Ramen logo.svg">
  <defs
     id="defs2" />
  <sodipodi:namedview
     id="base"
     pagecolor="#ffffff"
     bordercolor="#666666"
     borderopacity="1.0"
     inkscape:pageopacity="0.0"
     inkscape:pageshadow="2"
     inkscape:zoom="0.35"
     inkscape:cx="283.80952"
     inkscape:cy="-83.82965"
     inkscape:document-units="mm"
     inkscape:current-layer="layer1"
     showgrid="false"
     fit-margin-top="0"
     fit-margin-left="0"
     fit-margin-right="0"
     fit-margin-bottom="0"
     inkscape:window-width="1280"
     inkscape:window-height="688"
     inkscape:window-x="0"
     inkscape:window-y="1"
     inkscape:window-maximized="1" />
  <metadata
     id="metadata5">
    <rdf:RDF>
      <cc:Work
         rdf:about="">
        <dc:format>image/svg+xml</dc:format>
        <dc:type
           rdf:resource="http://purl.org/dc/dcmitype/StillImage" />
        <dc:title></dc:title>
      </cc:Work>
    </rdf:RDF>
  </metadata>
  <g
     inkscape:label="Layer 1"
     inkscape:groupmode="layer"
     id="layer1"
     transform="translate(-30.742065,-115.4424)">
    <g
       id="g75"
       transform="translate(3.8095238e-6,7.5595239)">
      <path
         style="fill:#dcdcdc;stroke-width:0.16918935"
         d="m 59.333965,118.94681 c -1.454113,-0.47414 -2.386991,-1.48312 -2.693753,-2.9135 -0.09975,-0.46514 -0.181371,-2.47887 -0.181371,-4.47495 v -3.62925 h 1.26892 1.26892 l 0.0025,3.84906 c 0.0028,4.26015 0.05169,4.50121 1.014996,5.00104 0.652463,0.33854 1.907645,0.30058 2.510528,-0.0759 0.631211,-0.39419 0.701723,-0.88564 0.701723,-4.89077 v -3.8834 h 1.26892 1.26892 v 3.88501 c 0,3.47261 -0.03597,3.98115 -0.338866,4.79071 -0.36452,0.97427 -0.919597,1.59519 -1.860596,2.0813 -0.652994,0.33733 -3.464492,0.51056 -4.230828,0.26068 z m -24.701644,-0.16868 c -0.686599,-0.22471 -1.561826,-0.70915 -2.230567,-1.23463 -0.815553,-0.64083 -1.659693,-2.31763 -1.659693,-3.29681 0,-0.67049 0.03677,-0.73433 0.422973,-0.73433 0.353066,0 0.422974,0.0804 0.422974,0.4863 0,1.40592 1.107679,2.95921 2.622434,3.67741 0.977705,0.46357 2.63259,0.53687 3.680212,0.16301 1.479187,-0.52787 2.74272,-2.03777 2.938157,-3.51104 0.09672,-0.72911 0.153223,-0.81568 0.532377,-0.81568 0.406633,0 0.419772,0.0321 0.317717,0.77669 -0.240775,1.75665 -1.351067,3.29462 -2.939469,4.07176 -0.742064,0.36306 -1.227553,0.46973 -2.311219,0.50785 -0.754505,0.0266 -1.562658,-0.0142 -1.795896,-0.0905 z m 13.028674,-5.34295 v -5.50607 h 3.80676 3.806761 v 1.09973 1.09973 h -2.537841 -2.53784 v 1.18433 1.18433 h 2.199462 2.199461 v 0.93054 0.93054 h -2.19455 -2.194551 l -0.04721,2.24176 -0.04721,2.24176 -1.226623,0.0497 -1.226623,0.0497 z m 19.964342,-0.007 v -5.49866 h 4.060545 4.060544 v 1.09974 1.09973 h -2.791624 -2.791624 v 1.09973 1.09973 h 2.622434 2.622435 v 0.93054 0.93054 h -2.622435 -2.622434 v 1.26892 1.26892 h 2.876218 2.876219 v 1.09973 1.09973 h -4.145139 -4.145139 z m 9.812982,0 v -5.49866 h 1.184326 1.184325 v 4.39893 4.39892 h 2.622435 2.622435 v 1.09973 1.09973 h -3.806761 -3.80676 z m 8.797846,0 v -5.49866 h 4.060544 4.060544 v 1.09974 1.09973 h -2.791624 -2.791624 v 1.09973 1.09973 h 2.622435 2.622435 v 0.93054 0.93054 H 91.39644 88.774005 v 1.26892 1.26892 h 2.876219 2.876219 v 1.09973 1.09973 h -4.145139 -4.145139 z m 9.812982,0.003 v -5.52852 l 3.087705,0.0557 3.087708,0.0557 0.93054,0.5218 c 1.63883,0.91898 2.41556,2.46122 2.42129,4.80766 0.004,1.78546 -0.39048,2.98922 -1.31937,4.02238 -1.16548,1.29629 -1.67418,1.4454 -5.204762,1.52556 l -3.003111,0.0682 z m 5.746533,2.98462 c 0.74181,-0.39784 1.23933,-1.35736 1.32615,-2.5576 0.0914,-1.26389 -0.20726,-2.27384 -0.89424,-3.02374 l -0.56877,-0.62087 -1.62051,-0.0586 -1.620512,-0.0586 v 3.31553 3.31552 h 1.398451 c 1.035261,0 1.549341,-0.0809 1.979431,-0.31158 z m 5.41996,-3.00079 v -5.51184 l 3.20268,0.0555 c 3.55194,0.0615 3.71095,0.10788 4.53774,1.32268 0.69171,1.01634 0.3783,2.8775 -0.59156,3.51298 l -0.41409,0.27132 0.59109,0.30325 c 0.68937,0.35366 1.30475,1.46899 1.29908,2.35448 -0.008,1.30718 -1.06013,2.67476 -2.32789,3.02685 -0.34606,0.0961 -1.90447,0.17517 -3.46313,0.17569 l -2.83392,9.4e-4 z m 6.09082,3.86197 c 0.79138,-0.39534 1.18461,-1.42388 0.85168,-2.22765 -0.34663,-0.83685 -0.99944,-1.06953 -3.26205,-1.16272 l -1.98855,-0.0819 v 1.88431 1.88431 l 1.90338,-3.4e-4 c 1.47312,-1.7e-4 2.03723,-0.0671 2.49554,-0.29608 z m -0.31064,-4.9534 c 0.87075,-0.39674 1.08549,-1.69549 0.41027,-2.48123 -0.39904,-0.46436 -0.45252,-0.47594 -2.45325,-0.53117 l -2.0453,-0.0565 v 1.73141 1.73141 l 1.82289,-0.0962 c 1.00258,-0.0529 2.02201,-0.18689 2.26539,-0.29778 z m 7.58578,4.37422 v -2.22904 l -1.958,-3.0341 c -1.0769,-1.66876 -1.99866,-3.14008 -2.04837,-3.26961 -0.0698,-0.182 0.10306,-0.23552 0.76081,-0.23552 h 0.85118 l 1.5578,2.49555 c 0.85679,1.37254 1.57817,2.51957 1.60307,2.54894 0.0249,0.0294 0.72339,-1.0746 1.55221,-2.45325 l 1.50696,-2.50664 0.87879,-0.0511 c 0.48334,-0.0281 0.8788,-0.0174 0.8788,0.0239 0,0.0413 -0.91362,1.50325 -2.03027,3.24881 l -2.03027,3.17375 v 2.25868 2.25869 h -0.76136 -0.76135 z m 6.59839,-3.28231 v -5.51136 l 3.34149,0.055 c 3.71214,0.0611 4.26571,0.19544 4.98863,1.21069 0.562,0.78926 0.62427,2.41105 0.12657,3.29658 -0.20832,0.37066 -0.55803,0.76986 -0.77714,0.88713 l -0.39838,0.2132 0.60889,0.52635 c 0.59446,0.51386 0.61252,0.56578 0.76184,2.19015 0.0841,0.91509 0.2275,1.80312 0.31863,1.97339 0.30743,0.57444 0.18863,0.67022 -0.83134,0.67022 -1.18818,0 -1.18312,0.008 -1.36188,-2.07297 -0.18609,-2.16614 -0.6244,-2.49236 -3.35123,-2.4942 l -1.39581,-9.4e-4 v 2.28405 2.28406 h -1.01514 -1.01513 z m 6.35229,-0.99475 c 0.32957,-0.32957 0.41528,-0.58893 0.41528,-1.25664 0,-0.70741 -0.071,-0.89718 -0.44579,-1.19201 -0.3916,-0.30804 -0.67953,-0.35066 -2.36865,-0.35066 h -1.92286 v 1.6073 1.60729 h 1.95336 c 1.84837,0 1.9757,-0.0223 2.36866,-0.41528 z m 3.12943,6.29461 c 0.004,-0.11631 0.90457,-2.57167 2.00145,-5.45635 l 1.99433,-5.24487 h 1.07735 1.07736 l 1.99523,5.24487 c 1.09737,2.88468 1.99597,5.34004 1.99687,5.45635 10e-4,0.14533 -0.30867,0.21149 -0.99036,0.21149 h -0.992 l -0.49879,-1.39581 -0.49879,-1.39581 -2.10983,-0.0471 -2.10983,-0.0471 -0.50016,1.44289 -0.50016,1.44289 h -0.9749 c -0.67092,0 -0.97267,-0.0659 -0.96777,-0.21149 z m 6.59126,-4.26436 c 0,-0.0708 -1.22755,-3.57082 -1.45648,-4.15281 -0.0802,-0.20376 -1.55274,3.61668 -1.58143,4.10285 -0.004,0.0698 0.67772,0.12689 1.51521,0.12689 0.83749,0 1.5227,-0.0346 1.5227,-0.0769 z m 4.56812,-1.02965 v -5.50549 l 1.37087,0.0491 1.37087,0.0491 1.41154,4.03723 c 0.77635,2.22048 1.43628,4.06197 1.46651,4.0922 0.0302,0.0302 0.69135,-1.80555 1.46916,-4.07953 l 1.41418,-4.1345 h 1.33168 1.33168 v 5.49866 5.49865 h -0.93054 -0.93054 l -0.01,-4.01825 -0.01,-4.01824 -0.47022,1.26892 c -0.25862,0.6979 -0.9104,2.50611 -1.4484,4.01824 l -0.97818,2.74933 h -0.80568 -0.80567 l -1.41613,-3.99834 -1.41614,-3.99835 -0.0454,3.99835 -0.0454,3.99834 h -0.92748 -0.92747 z m 13.36595,0.007 v -5.49865 h 3.89136 3.89135 v 0.84594 0.84595 h -2.87622 -2.87621 v 1.34922 1.34922 l 2.66473,0.0466 2.66473,0.0466 0.0516,0.80365 0.0516,0.80365 h -2.7163 -2.71629 v 1.51871 1.51871 l 2.91851,0.0463 2.91852,0.0463 0.0511,0.88824 0.0511,0.88824 h -3.9848 -3.98479 z m 9.30542,0.008 v -5.50709 h 1.06386 1.06387 l 2.40451,3.92782 2.40452,3.92782 v -3.92782 -3.92782 h 0.93054 0.93054 v 5.49865 5.49865 h -1.00156 -1.00159 l -2.3399,-3.83304 -2.33993,-3.83304 -0.0846,3.79075 -0.0846,3.79075 -0.97283,0.0507 -0.97284,0.0507 v -5.5071 z M 32.894376,112.16576 c 0.06945,-0.51781 -0.01392,-0.86831 -0.3674,-1.5443 -0.520868,-0.99614 -0.485521,-1.32788 0.229788,-2.15664 0.33355,-0.38645 0.604314,-0.54624 0.860059,-0.50756 0.36526,0.0552 0.362026,0.0705 -0.151023,0.71416 -0.633327,0.79454 -0.638958,0.90371 -0.101304,1.96472 0.232635,0.45908 0.422973,0.9945 0.422973,1.18982 0,0.5369 -0.312122,1.00964 -0.666611,1.00964 -0.270838,0 -0.303407,-0.0963 -0.226482,-0.66984 z m 3.092555,0.59626 c 0,-0.0405 0.07764,-0.27778 0.172529,-0.52736 0.13998,-0.36818 0.0921,-0.62946 -0.253784,-1.38498 -0.234473,-0.51215 -0.426313,-1.10006 -0.426313,-1.30647 0,-0.56724 0.855947,-1.60062 1.331853,-1.60793 0.385198,-0.006 0.390247,0.009 0.125725,0.37451 -0.915423,1.26449 -0.881435,1.08061 -0.386334,2.0901 0.67706,1.3805 0.564796,2.43571 -0.259136,2.43571 -0.167497,0 -0.30454,-0.0331 -0.30454,-0.0736 z m 3.145035,-0.57445 c 0.08743,-0.54674 0.02,-0.82838 -0.360306,-1.50492 -0.538458,-0.95789 -0.497934,-1.35344 0.227419,-2.21983 0.331684,-0.39617 0.587642,-0.54847 0.852987,-0.50756 0.374347,0.0577 0.372729,0.0659 -0.128841,0.65061 -0.629063,0.73336 -0.642752,1.12823 -0.07664,2.2109 0.366666,0.70124 0.417824,0.94655 0.290436,1.3927 -0.106048,0.37141 -0.273691,0.55869 -0.533618,0.59612 -0.352652,0.0508 -0.371518,0.008 -0.271439,-0.61802 z"
         id="path89"
         inkscape:connector-curvature="0" />
      <path
         style="fill:#d2d2d2;stroke-width:0.16918935"
         d="m 59.223352,118.86254 c -1.113095,-0.36346 -1.754101,-0.92269 -2.236358,-1.95108 -0.43338,-0.92415 -0.444838,-1.03806 -0.499276,-4.9641 l -0.05572,-4.01825 h 1.273792 1.273795 l 0.05084,4.05702 0.05085,4.05702 0.445357,0.44504 c 0.754011,0.75347 2.746921,0.72454 3.390167,-0.0492 0.167883,-0.20195 0.2465,-1.30598 0.309615,-4.34798 l 0.08459,-4.07729 1.226623,-0.0497 1.226623,-0.0497 v 3.63665 c 0,2.00016 -0.08162,4.01723 -0.181371,4.48237 -0.245464,1.14455 -0.962828,2.08484 -1.958166,2.56667 -1.002988,0.48554 -3.299028,0.62251 -4.401366,0.26256 z m -24.674531,-0.16065 c -1.001396,-0.33139 -1.415133,-0.58636 -2.310497,-1.42387 -0.879319,-0.8225 -1.496263,-2.13848 -1.496263,-3.19161 0,-0.5223 0.04777,-0.59077 0.379162,-0.54352 0.312323,0.0445 0.399439,0.19655 0.494203,0.86235 0.24832,1.74465 1.563391,3.10124 3.483078,3.59304 2.209843,0.56613 4.499765,-0.53811 5.443251,-2.62484 0.189329,-0.41874 0.345907,-1.00879 0.347951,-1.31121 0.0032,-0.47274 0.06304,-0.54987 0.426689,-0.54987 0.508075,0 0.533115,0.24445 0.155344,1.51655 -0.478117,1.60999 -1.290029,2.54657 -2.933112,3.38348 -0.928389,0.47288 -2.984786,0.62209 -3.989806,0.2895 z m 13.112174,-5.27412 v -5.49866 h 3.80676 3.806761 v 1.01073 1.01073 l -2.580138,0.0467 -2.580137,0.0467 -0.04971,1.22662 -0.04971,1.22663 h 2.291468 2.291468 v 0.93054 0.93054 h -2.284056 -2.284056 v 2.28405 2.28406 H 48.84532 47.660994 Z m 20.077136,5.38586 c -0.06204,-0.062 -0.112794,-2.53643 -0.112794,-5.49866 v -5.38586 h 4.060545 4.060544 v 1.01514 1.01514 h -2.791624 -2.791624 v 1.18432 1.18433 h 2.53784 2.53784 v 0.93054 0.93054 h -2.53784 -2.53784 v 1.26483 1.26483 l 2.833921,0.0464 2.833922,0.0464 0.05037,1.05744 0.05037,1.05743 h -4.040419 c -2.222229,0 -4.091176,-0.0508 -4.153211,-0.11279 z m 9.700188,-5.38586 v -5.49866 h 1.184326 1.184325 v 4.39893 4.39892 h 2.622435 2.622435 v 1.09973 1.09973 h -3.806761 -3.80676 z m 8.874628,5.28551 c -0.04498,-0.11722 -0.06163,-2.57258 -0.03699,-5.45635 l 0.0448,-5.24322 4.018247,-0.0454 4.018246,-0.0454 v 1.0182 1.0182 h -2.791624 -2.791624 v 1.18432 1.18433 h 2.631277 2.631276 l -0.05114,0.88824 -0.05114,0.88824 -2.580137,0.0467 -2.580138,0.0467 v 1.26452 1.26451 h 2.876219 2.876219 v 1.09973 1.09973 h -4.065854 c -3.113403,0 -4.085014,-0.0499 -4.147642,-0.21314 z m 9.7362,-5.28035 v -5.53122 l 3.003111,0.0564 c 3.362602,0.0631 3.996732,0.2293 5.104962,1.33753 0.92791,0.92791 1.25521,1.86062 1.33129,3.79375 0.0566,1.43924 0.0107,1.84047 -0.3079,2.68687 -0.45922,1.22008 -1.27052,2.14704 -2.32655,2.65822 -0.71728,0.34721 -1.1048,0.39391 -3.801802,0.45814 l -3.003111,0.0715 z m 5.871113,2.9625 c 0.86433,-0.52701 1.14348,-1.22861 1.1471,-2.88307 0.006,-2.53435 -0.7108,-3.29939 -3.274486,-3.49709 l -1.375076,-0.10604 v 3.40887 3.40886 l 1.480406,-6.8e-4 c 1.169726,-5.1e-4 1.594076,-0.0699 2.022056,-0.33089 z m 5.37835,2.33397 c -0.0484,-0.12609 -0.0678,-2.5887 -0.0432,-5.47247 l 0.0448,-5.24322 h 3.04541 c 2.74112,0 3.1028,0.0338 3.61988,0.33838 0.80966,0.4769 1.22519,1.10577 1.3269,2.00814 0.10829,0.96079 -0.15907,1.64502 -0.89542,2.29155 -0.55347,0.48596 -0.55532,0.49246 -0.16719,0.58988 0.59139,0.14843 1.39534,1.16625 1.52435,1.92986 0.22122,1.30938 -0.48287,2.73797 -1.66421,3.3767 -0.71982,0.38919 -6.65081,0.54742 -6.79135,0.18118 z m 6.46976,-1.71021 c 0.38574,-0.38613 0.46863,-0.61723 0.46863,-1.30651 0,-1.4828 -0.7458,-1.85088 -3.76446,-1.8579 l -1.73419,-0.004 v 1.87419 1.87419 l 2.28069,-0.0554 c 2.23419,-0.0543 2.29025,-0.065 2.74933,-0.52453 z m -1.22326,-4.51765 c 0.85116,-0.19721 1.26892,-0.70156 1.26892,-1.53193 0,-1.44284 -0.45177,-1.68698 -3.1216,-1.68698 h -1.95408 v 1.69189 1.69189 l 1.565,-0.004 c 0.86075,-0.002 1.86954,-0.0746 2.24176,-0.16084 z m 8.03649,4.16303 v -2.26186 l -1.9666,-3.02531 c -1.08163,-1.66392 -2.0034,-3.12048 -2.04837,-3.2368 -0.0588,-0.15199 0.15757,-0.21149 0.76904,-0.21149 h 0.85082 l 1.56484,2.54519 c 1.24094,2.01838 1.60646,2.4999 1.76593,2.32636 0.1106,-0.12036 0.82557,-1.2657 1.58881,-2.54519 l 1.38772,-2.32636 h 0.84552 c 0.63168,0 0.81323,0.0535 0.71789,0.21149 -0.0702,0.11632 -0.98831,1.56498 -2.04026,3.21926 l -1.91263,3.00777 v 2.27939 2.2794 h -0.76136 -0.76135 z m 6.67517,2.04871 c -0.045,-0.11722 -0.0616,-2.57258 -0.037,-5.45635 l 0.0448,-5.24322 h 3.29919 c 3.16043,0 3.3286,0.0168 3.9983,0.40062 1.70761,0.97853 1.93084,3.53069 0.42002,4.80197 -0.52074,0.43817 -0.52535,0.45421 -0.18314,0.63735 0.6124,0.32775 1.00802,1.18553 1.0131,2.19655 0.004,0.87804 0.12558,1.62497 0.40485,2.49554 0.11742,0.36605 0.0831,0.38068 -0.89302,0.38068 -1.17055,0 -1.1278,0.0617 -1.2897,-1.86108 -0.20072,-2.38391 -0.4213,-2.58038 -3.00514,-2.67668 l -1.81878,-0.0678 v 2.30277 2.30277 h -0.93585 c -0.59647,0 -0.96552,-0.0773 -1.01764,-0.21314 z m 6.22282,-6.21089 c 0.79806,-0.62775 0.7155,-2.29882 -0.13267,-2.68527 -0.24264,-0.11056 -1.23888,-0.19611 -2.28354,-0.19611 h -1.85312 v 1.6073 1.60729 h 1.92286 c 1.65673,0 1.98149,-0.0461 2.34647,-0.33321 z m 3.175,6.28546 c 0,-0.0855 0.9074,-2.54465 2.01644,-5.46479 l 2.01645,-5.30935 h 1.04907 1.04908 l 1.93123,5.07568 c 1.06217,2.79162 1.975,5.24698 2.0285,5.45635 0.0928,0.36307 0.0506,0.38068 -0.91094,0.38068 h -1.00822 l -0.48828,-1.43811 -0.48827,-1.43811 h -2.14026 -2.14025 l -0.48444,1.39581 -0.48443,1.39582 -0.97284,0.0507 c -0.53506,0.0279 -0.97284,-0.0192 -0.97284,-0.10472 z m 6.55536,-4.47184 c -0.0436,-0.11632 -0.37282,-1.10607 -0.73166,-2.19946 -0.35883,-1.09339 -0.69374,-1.98798 -0.74424,-1.98798 -0.0915,0 -1.53426,4.03069 -1.52916,4.27204 0.002,0.0698 0.69604,0.12689 1.54348,0.12689 1.16211,0 1.52133,-0.052 1.46158,-0.21149 z m 4.61114,-0.88824 v -5.49866 h 1.33751 1.33751 l 0.49916,1.39582 c 0.27453,0.76769 0.9437,2.68371 1.48704,4.25781 l 0.9879,2.862 1.41927,-4.25781 1.41927,-4.25782 h 1.33942 1.33941 v 5.49866 5.49865 h -0.92748 -0.92748 l -0.0454,-4.01825 -0.0454,-4.01824 -1.41829,4.01824 -1.4183,4.01825 h -0.79202 -0.79202 l -1.46036,-4.10284 -1.46036,-4.10284 -0.009,4.10284 -0.009,4.10284 h -0.93054 -0.93054 z m 13.36595,0.003 V 107.929 h 3.89136 3.89135 v 0.84594 0.84595 h -2.87622 -2.87621 v 1.43811 1.43811 h 2.62243 2.62244 v 0.76135 0.76135 h -2.62244 -2.62243 v 1.51871 1.51871 l 2.91851,0.0463 2.91852,0.0463 v 0.84594 0.84595 l -3.93365,0.0454 -3.93366,0.0454 z m 9.3822,5.2824 c -0.045,-0.11723 -0.0616,-2.57259 -0.037,-5.45636 l 0.0448,-5.24321 1.01514,-0.0455 1.01513,-0.0455 2.36865,3.88999 2.36866,3.88998 0.0454,-3.88683 0.0454,-3.88683 h 0.92741 0.92743 v 5.49866 5.49865 h -0.98683 -0.98683 l -2.43925,-4.00512 -2.43926,-4.00512 -0.0454,4.00512 -0.0454,4.00512 h -0.8482 c -0.52598,0 -0.87926,-0.081 -0.92998,-0.21314 z M 33.021784,112.73621 c -0.09544,-0.04 -0.145662,-0.36483 -0.111611,-0.72189 0.04416,-0.46306 -0.0669,-0.89554 -0.387343,-1.50838 -0.423092,-0.80915 -0.434035,-0.88704 -0.187919,-1.33733 0.434468,-0.7949 0.894457,-1.2395 1.282408,-1.2395 0.351203,0 0.344265,0.0297 -0.154012,0.65881 -0.632049,0.79803 -0.646782,1.11847 -0.09881,2.14906 0.460689,0.86644 0.516944,1.26853 0.247832,1.77137 -0.175495,0.32791 -0.267198,0.36329 -0.590545,0.22786 z m 3.245128,-0.0154 c -0.06314,-0.0631 -0.07129,-0.34864 -0.01811,-0.63446 0.06898,-0.37074 -0.02742,-0.75253 -0.336377,-1.33227 -0.238185,-0.44693 -0.433062,-0.98665 -0.433062,-1.19938 0,-0.56127 0.851425,-1.61198 1.312278,-1.61942 0.375231,-0.006 0.373069,0.006 -0.126892,0.69598 -0.279746,0.38617 -0.508629,0.79358 -0.508629,0.90534 0,0.11176 0.190338,0.56118 0.422973,0.9987 0.484374,0.91098 0.54145,1.65009 0.157104,2.03444 -0.303329,0.30332 -0.313694,0.30666 -0.469285,0.15107 z m 2.899574,-0.62144 c 0.04422,-0.37878 -0.0794,-0.85437 -0.372354,-1.43248 -0.241203,-0.476 -0.438551,-0.96834 -0.438551,-1.0941 0,-0.45701 1.073283,-1.64368 1.486633,-1.64368 0.397717,0 0.397303,0.002 -0.120801,0.63071 -0.631403,0.76601 -0.64406,1.08744 -0.09044,2.29671 0.502796,1.09825 0.439873,1.80988 -0.160032,1.80988 -0.320857,0 -0.361764,-0.0762 -0.304457,-0.56704 z"
         id="path87"
         inkscape:connector-curvature="0" />
      <path
         style="fill:#cbcbcb;stroke-width:0.16918935"
         d="m 59.236957,118.85686 c -1.049395,-0.32856 -1.725413,-0.92003 -2.233144,-1.95385 l -0.460377,-0.9374 v -3.97595 -3.97595 h 1.184325 1.184325 l 0.0846,4.01477 0.0846,4.01477 0.454285,0.45391 c 0.882798,0.88209 2.988357,0.69142 3.553966,-0.32182 0.146418,-0.26229 0.231568,-1.58966 0.276643,-4.31257 l 0.06512,-3.93366 h 1.179698 1.179696 l -0.05773,4.10284 c -0.05509,3.91526 -0.07607,4.13999 -0.458926,4.91523 -0.474749,0.96131 -1.226371,1.57957 -2.320662,1.90891 -0.971922,0.2925 -2.783422,0.29288 -3.716413,8.4e-4 z m -24.717883,-0.16385 c -2.131872,-0.69717 -3.777013,-2.74598 -3.777013,-4.70379 0,-0.66702 0.62932,-0.67654 0.76582,-0.0116 0.403708,1.96663 1.062288,2.92817 2.514083,3.67065 1.274711,0.65191 2.78221,0.68852 4.12711,0.10021 1.52893,-0.66881 2.744347,-2.34754 2.744347,-3.79049 0,-0.36659 0.07767,-0.44564 0.437846,-0.44564 0.420288,0 0.433251,0.0288 0.32328,0.71906 -0.422195,2.64986 -2.522185,4.50973 -5.235388,4.63675 -0.705192,0.033 -1.482668,-0.0387 -1.900085,-0.17516 z m 13.254715,0.12062 c -0.06204,-0.062 -0.112794,-2.53643 -0.112794,-5.49866 v -5.38586 h 3.80676 3.806761 v 1.01514 1.01514 h -2.622435 -2.622435 v 1.26892 1.26892 h 2.284056 2.284056 v 0.93054 0.93054 h -2.284056 -2.284056 v 2.28405 2.28406 h -1.071532 c -0.589344,0 -1.12229,-0.0508 -1.184325,-0.11279 z m 19.929508,-0.0973 c -0.04563,-0.11892 -0.06281,-2.57566 -0.03817,-5.45943 l 0.0448,-5.24322 4.018247,-0.0454 4.018247,-0.0454 v 1.0182 1.0182 h -2.791624 -2.791624 v 1.18432 1.18433 h 2.53784 2.53784 v 0.93054 0.93054 h -2.53784 -2.53784 v 1.26483 1.26483 l 2.833921,0.0464 2.833922,0.0464 v 1.01514 1.01514 l -4.022379,0.0454 c -3.141968,0.0354 -4.040538,-0.002 -4.105345,-0.17084 z m 9.735022,-5.28859 v -5.49866 h 1.184326 1.184325 v 4.39452 4.39452 l 2.580138,0.0467 2.580137,0.0467 0.05037,1.05744 0.05037,1.05743 h -3.814832 -3.814834 z m 8.967035,0 v -5.49866 h 3.97595 3.975949 v 1.01514 1.01514 h -2.791624 -2.791624 v 1.18432 1.18433 h 2.53784 2.53784 v 0.93054 0.93054 h -2.53784 -2.53784 v 1.26483 1.26483 l 2.833922,0.0464 2.833921,0.0464 0.05037,1.05744 0.05037,1.05743 h -4.068617 -4.068618 z m 9.643793,0.003 v -5.53427 l 3.003111,0.0682 c 3.516122,0.0798 4.041242,0.23145 5.177112,1.49481 1.02245,1.1372 1.35543,2.26787 1.2596,4.27699 -0.11984,2.51246 -0.92134,3.8812 -2.75684,4.70794 -0.74596,0.33599 -1.19091,0.38928 -3.764467,0.45083 l -2.918516,0.0698 z m 5.890843,2.95292 c 0.87709,-0.53475 1.2727,-1.61211 1.18,-3.21351 -0.13332,-2.30306 -0.87245,-3.01931 -3.270118,-3.1689 l -1.432074,-0.0893 v 3.40763 3.40764 l 1.480406,-6.8e-4 c 1.187446,-5.1e-4 1.591496,-0.0684 2.041786,-0.34289 z m 5.44484,-2.97211 v -5.51509 l 3.00311,0.0628 c 2.4231,0.0507 3.10643,0.11852 3.53804,0.35143 1.60193,0.86444 1.88403,2.90736 0.58135,4.21005 -0.58911,0.5891 -0.608,0.63821 -0.27737,0.72119 0.55389,0.13902 1.28785,1.01313 1.45446,1.73219 0.40854,1.76313 -0.59966,3.35909 -2.38135,3.76962 -0.41688,0.0961 -1.91902,0.17651 -3.3381,0.17878 l -2.58014,0.004 z m 6.35978,3.63162 c 0.62558,-0.62625 0.74278,-1.75501 0.24741,-2.38273 -0.49035,-0.62136 -1.28076,-0.80742 -3.43489,-0.80854 l -1.81878,-9.4e-4 v 1.87419 1.87419 l 2.28069,-0.0554 c 2.20349,-0.0535 2.29576,-0.0705 2.72557,-0.50077 z m -1.0776,-4.55324 c 0.34621,-0.0962 0.74592,-0.34108 0.88825,-0.54427 0.36583,-0.5223 0.33139,-1.68958 -0.0643,-2.1788 -0.30488,-0.37697 -0.44754,-0.40255 -2.53784,-0.45516 l -2.21479,-0.0557 v 1.70534 1.70533 l 1.64959,-10e-4 c 0.90728,-5.1e-4 1.93286,-0.0796 2.27907,-0.17576 z m 7.91459,4.172 v -2.28417 l -2.03027,-3.13535 c -1.11665,-1.72444 -2.03027,-3.17533 -2.03027,-3.22421 0,-0.0489 0.37035,-0.0889 0.823,-0.0889 h 0.82299 l 1.56269,2.5373 c 0.85948,1.39551 1.61934,2.50229 1.68858,2.45949 0.0692,-0.0428 0.79627,-1.18457 1.61563,-2.53729 l 1.48975,-2.4595 h 0.83056 c 0.62009,0 0.79804,0.0536 0.70225,0.21149 -0.0706,0.11632 -0.96965,1.50579 -1.99796,3.08771 l -1.86965,2.87621 -0.0846,2.36866 -0.0846,2.36865 -0.71905,0.052 -0.71906,0.052 z m 6.76758,-3.23394 v -5.49866 h 2.84551 c 3.20236,0 4.24492,0.20302 4.97556,0.96886 1.09631,1.14915 1.09802,3.00214 0.004,4.14912 -0.24413,0.2559 -0.56286,0.46556 -0.70829,0.4659 -0.14544,3.4e-4 -0.0124,0.15429 0.29562,0.34209 0.69172,0.42173 1.046,1.23092 1.05129,2.40117 0.004,0.86028 0.16065,1.75165 0.41753,2.37409 0.10766,0.26085 0.0118,0.29608 -0.80573,0.29608 -0.5406,0 -0.99754,-0.0883 -1.0947,-0.21149 -0.0917,-0.11631 -0.21279,-0.83863 -0.26904,-1.60513 -0.17731,-2.41649 -0.57525,-2.75149 -3.26843,-2.75149 h -1.58205 v 2.28405 2.28406 h -0.93054 -0.93054 z m 6.1396,-0.93261 c 0.23804,-0.18724 0.4827,-0.56765 0.5437,-0.84536 0.1394,-0.63469 -0.18195,-1.63989 -0.59491,-1.8609 -0.17254,-0.0923 -1.19427,-0.16789 -2.27051,-0.16789 h -1.9568 v 1.6073 1.60729 h 1.92286 c 1.67056,0 1.97965,-0.0447 2.35566,-0.34044 z m 3.20604,6.14428 c 0.0654,-0.23637 3.37841,-8.99441 3.93951,-10.41425 0.0926,-0.23438 0.32099,-0.29608 1.09594,-0.29608 0.7744,0 1.00368,0.0619 1.09738,0.29608 0.77075,1.92654 3.9783,10.44028 3.9783,10.5595 0,0.0872 -0.43728,0.13578 -0.97173,0.10788 l -0.97173,-0.0507 -0.50868,-1.39516 -0.50867,-1.39516 -2.13515,-6.7e-4 -2.13514,-6.8e-4 -0.50605,1.39581 -0.50606,1.39581 -0.97619,0.0514 c -0.87195,0.0459 -0.96717,0.0188 -0.89173,-0.25378 z m 6.55815,-4.23422 c 0,-0.26422 -1.44433,-4.27427 -1.53991,-4.27542 -0.097,-0.001 -1.51135,4.00594 -1.50739,4.27081 0.001,0.0698 0.68711,0.12689 1.5246,0.12689 0.83749,0 1.5227,-0.055 1.5227,-0.12228 z m 4.56812,-0.96861 v -5.5075 h 1.33223 1.33223 l 1.48749,4.24922 1.4875,4.24921 1.45203,-4.24921 1.45203,-4.24922 h 1.31149 1.31149 v 5.5075 5.50749 l -0.88824,-0.0511 -0.88825,-0.0511 -0.0846,-4.01602 -0.0846,-4.01601 -1.1716,3.33926 c -1.7428,4.96725 -1.64525,4.77736 -2.454,4.77736 -0.4733,0 -0.72299,-0.089 -0.83037,-0.29608 -0.0845,-0.16285 -0.75332,-1.9918 -1.48636,-4.06434 l -1.33281,-3.76825 -0.0846,4.02204 -0.0846,4.02204 -0.88824,0.0511 -0.88824,0.0511 z m 13.36595,-0.006 v -5.50177 h 3.89136 3.89135 v 0.84594 0.84595 h -2.96765 -2.96766 l 0.0491,1.39581 0.0491,1.39582 2.66473,0.0466 2.66474,0.0466 v 0.75706 0.75705 h -2.71338 -2.71338 l 0.0486,1.56501 0.0487,1.565 3.01222,0.0462 3.01222,0.0462 -0.0514,0.79971 -0.0514,0.79971 -3.93365,0.0454 -3.93366,0.0454 v -5.50177 z m 9.47461,-0.0116 v -5.50709 l 0.97284,0.0507 0.97283,0.0507 2.36865,3.85524 2.36866,3.85525 0.0846,-3.85525 0.0846,-3.85524 0.88825,-0.0511 0.88824,-0.0511 v 5.5075 5.50749 h -0.97397 -0.97395 l -2.45213,-4.01825 -2.45212,-4.01824 -0.0454,4.01824 -0.0454,4.01825 h -0.84289 -0.84288 z M 32.923482,112.28731 c 0.154431,-0.41747 0.03558,-0.96848 -0.383827,-1.77953 -0.151189,-0.29238 -0.27489,-0.72306 -0.27489,-0.95708 0,-0.5292 0.933182,-1.62159 1.385258,-1.62159 0.301998,0 0.28357,0.065 -0.186716,0.65881 -0.635336,0.80218 -0.648022,1.13627 -0.0841,2.21475 0.543045,1.03855 0.458082,1.86374 -0.191891,1.86374 -0.347483,0 -0.384436,-0.0531 -0.263834,-0.37911 z m 3.316896,-0.12692 c 0.07972,-0.36296 -0.01215,-0.77533 -0.324937,-1.45855 -0.239843,-0.5239 -0.436078,-1.09296 -0.436078,-1.26458 0,-0.43909 0.982533,-1.50815 1.386082,-1.50815 0.312925,0 0.305941,0.0356 -0.102172,0.52061 -0.657544,0.78145 -0.695597,1.18984 -0.197967,2.12463 0.61308,1.15167 0.567072,2.09206 -0.102351,2.09206 -0.282556,0 -0.316682,-0.0776 -0.222577,-0.50603 z m 2.926108,-0.061 c 0.04458,-0.38185 -0.08135,-0.85822 -0.385563,-1.45855 -0.275682,-0.54404 -0.413443,-1.03192 -0.353448,-1.25174 0.131969,-0.48354 1.044098,-1.45997 1.36383,-1.45997 0.352895,0 0.323428,0.12501 -0.166804,0.70762 -0.512107,0.6086 -0.540636,1.29068 -0.08523,2.03762 0.197197,0.32343 0.33801,0.85318 0.338379,1.27301 5.07e-4,0.63764 -0.04341,0.71906 -0.388368,0.71906 -0.341664,0 -0.380945,-0.069 -0.322799,-0.56705 z"
         id="path85"
         inkscape:connector-curvature="0" />
      <path
         style="fill:#c4c4c4;stroke-width:0.16918935"
         d="m 59.588844,118.94817 c -1.243329,-0.32906 -2.241076,-1.1641 -2.698054,-2.25807 -0.212861,-0.50958 -0.26276,-1.40263 -0.26276,-4.70274 v -4.07371 l 1.142028,0.05 1.142028,0.05 0.0846,3.97595 c 0.05727,2.69189 0.151743,4.09314 0.29251,4.33883 0.403234,0.70377 2.141631,0.97415 3.094664,0.48131 0.874288,-0.45211 0.92264,-0.69577 0.983164,-4.95445 l 0.05601,-3.94107 1.128315,0.0497 1.128315,0.0497 v 3.98854 3.98855 l -0.507568,0.98436 c -0.719398,1.39518 -1.746372,1.96608 -3.684627,2.04832 -0.76508,0.0325 -1.619459,-0.001 -1.898621,-0.0753 z M 34.8872,118.77581 c -2.244013,-0.60658 -3.8461,-2.34057 -4.093645,-4.43069 -0.08956,-0.75622 -0.06709,-0.83276 0.244489,-0.83276 0.262711,0 0.370777,0.14868 0.461158,0.63446 0.466446,2.50709 2.239827,4.00174 4.741513,3.99627 1.463809,-0.003 2.480012,-0.44807 3.465346,-1.51703 0.761744,-0.8264 1.01763,-1.34086 1.170005,-2.35235 0.07984,-0.52998 0.175338,-0.67675 0.440329,-0.67675 0.290865,0 0.330721,0.0946 0.283845,0.67383 -0.131045,1.61929 -1.513173,3.437 -3.170983,4.17032 -0.836134,0.36987 -2.744763,0.55022 -3.542057,0.3347 z m 12.886589,0.0378 c -0.06204,-0.062 -0.112794,-2.53643 -0.112794,-5.49866 v -5.38586 h 3.80676 3.806761 v 1.01514 1.01514 h -2.622435 -2.622435 v 1.26892 1.26892 h 2.284056 2.284056 v 0.93054 0.93054 h -2.284056 -2.284056 v 2.28405 2.28406 h -1.071532 c -0.589344,0 -1.12229,-0.0508 -1.184325,-0.11279 z m 20.020738,-5.3828 v -5.50172 h 3.975949 3.97595 v 1.01514 1.01514 h -2.791624 -2.791624 v 1.18432 1.18433 h 2.53784 2.53784 v 0.93054 0.93054 h -2.53784 -2.53784 v 1.35351 1.35352 h 2.884661 2.884663 l -0.05074,0.97284 -0.05074,0.97284 -4.018247,0.0454 -4.018247,0.0454 z m 9.759797,5.38601 c -0.0638,-0.0638 -0.116005,-2.53964 -0.116005,-5.50187 v -5.38586 h 1.184326 1.184325 v 4.48352 4.48352 h 2.630877 2.630879 l -0.05074,0.97284 -0.05074,0.97284 -3.648458,0.0455 c -2.006652,0.025 -3.70066,-0.007 -3.764463,-0.0705 z m 8.85103,-5.38601 v -5.50172 h 3.97595 3.975949 v 1.01514 1.01514 h -2.791624 -2.791624 v 1.18432 1.18433 h 2.53784 2.53784 v 0.93054 0.93054 h -2.53784 -2.53784 v 1.35351 1.35352 h 2.884662 2.884663 l -0.05074,0.97284 -0.05074,0.97284 -4.018247,0.0454 -4.018247,0.0454 z m 9.770685,5.40228 c -0.06979,-0.0727 -0.126892,-2.5644 -0.126892,-5.537 v -5.40473 l 3.003111,0.0721 c 3.339352,0.0802 3.766052,0.18615 4.909872,1.21953 0.96063,0.86786 1.4341,2.05907 1.52568,3.83841 0.13545,2.63175 -0.703,4.37121 -2.55265,5.29574 -0.93817,0.46894 -1.10531,0.49394 -3.806738,0.56935 -1.554021,0.0434 -2.882593,0.0194 -2.952383,-0.0534 z m 5.033381,-2.12391 c 0.37222,-0.10178 0.82075,-0.31073 0.99674,-0.46433 0.98149,-0.85662 1.28013,-3.36092 0.56826,-4.76536 -0.53512,-1.05574 -1.21154,-1.39748 -2.946274,-1.48853 l -1.410348,-0.074 v 3.4896 3.4896 l 1.057433,-10e-4 c 0.581589,-5e-4 1.361979,-0.0842 1.734189,-0.186 z m 6.17541,-3.28355 v -5.53851 l 3.00311,0.0746 c 3.30741,0.0822 3.76438,0.20114 4.44505,1.15705 0.79289,1.11352 0.58299,2.67116 -0.47779,3.54554 -0.46212,0.38092 -0.54017,0.50963 -0.30902,0.50963 0.48281,0 1.40945,1.04601 1.62029,1.82901 0.35961,1.33547 -0.36586,2.89717 -1.6314,3.51186 -0.53191,0.25836 -1.16677,0.32469 -3.64713,0.38106 l -3.00311,0.0682 z m 6.36152,3.57201 c 0.4564,-0.45639 0.57525,-0.71078 0.57525,-1.23127 0,-1.4662 -0.85217,-1.91565 -3.63214,-1.91565 h -1.95111 v 1.86108 1.86109 h 2.21638 2.21638 z m -0.87105,-4.57071 c 0.69876,-0.29196 0.93873,-0.70561 0.93873,-1.61819 0,-0.51292 -0.10905,-0.80462 -0.41529,-1.11085 -0.39678,-0.39678 -0.50984,-0.41528 -2.53784,-0.41528 h -2.12255 v 1.69189 1.69189 h 1.78192 c 1.15382,0 1.98394,-0.0844 2.35503,-0.23946 z m 7.82715,6.39473 c -0.0665,-0.0665 -0.12085,-1.09597 -0.12085,-2.28778 v -2.16694 l -2.03027,-3.13865 c -1.11665,-1.72627 -2.03027,-3.17478 -2.03027,-3.21893 0,-0.0441 0.36243,-0.0803 0.8054,-0.0803 h 0.8054 l 1.58083,2.53696 c 0.86945,1.39533 1.64761,2.49569 1.72923,2.44524 0.0816,-0.0504 0.80707,-1.19207 1.6121,-2.53696 l 1.4637,-2.44524 h 0.73897 c 0.40643,0 0.73897,0.0633 0.73897,0.14068 0,0.0774 -0.85652,1.46684 -1.90338,3.0877 l -1.90338,2.94703 -0.0846,2.36866 -0.0846,2.36865 -0.59821,0.0503 c -0.32901,0.0277 -0.65259,-0.004 -0.71905,-0.0705 z m 6.64673,-5.38507 v -5.5075 h 2.6987 c 1.48428,0 3.08912,0.0837 3.56631,0.18607 1.63749,0.35118 2.50346,1.56918 2.30529,3.24241 -0.11721,0.98966 -0.44006,1.54372 -1.15171,1.9765 l -0.51492,0.31314 0.48182,0.22884 c 0.65799,0.31252 1.07253,1.21383 1.07775,2.34332 0.004,0.89303 0.15814,1.78179 0.4178,2.41095 0.10765,0.26085 0.0118,0.29608 -0.80573,0.29608 -0.54019,0 -0.99795,-0.0884 -1.09549,-0.21149 -0.0922,-0.11631 -0.20769,-0.82791 -0.25672,-1.58132 -0.15693,-2.41101 -0.58682,-2.7753 -3.27506,-2.7753 h -1.57714 l -0.0472,2.24176 -0.0472,2.24176 -0.88824,0.0511 -0.88824,0.0511 z m 6.1463,-0.94672 c 0.7885,-0.62023 0.74731,-2.27005 -0.0676,-2.70616 -0.16723,-0.0895 -1.18461,-0.16272 -2.26085,-0.16272 h -1.9568 v 1.6073 1.60729 h 1.92286 c 1.68027,0 1.97831,-0.0436 2.36236,-0.34571 z m 3.15911,6.35529 c 0,-0.0744 3.31919,-8.9292 3.98088,-10.61999 0.0918,-0.23451 0.31942,-0.29608 1.0948,-0.29608 0.77495,0 1.00331,0.0617 1.09594,0.29608 0.5611,1.41984 3.87409,10.17788 3.93951,10.41425 0.0755,0.27299 -0.0204,0.29976 -0.90938,0.25379 l -0.99385,-0.0514 -0.50072,-1.39582 -0.50072,-1.39581 h -2.15113 -2.15113 l -0.26822,0.71906 c -0.14753,0.39548 -0.37053,1.02359 -0.49555,1.39581 -0.22602,0.67287 -0.23281,0.67705 -1.18388,0.7275 -0.5261,0.0279 -0.95655,0.007 -0.95655,-0.0474 z m 6.59838,-4.47592 c 0,-0.21723 -1.37633,-4.12748 -1.50432,-4.27388 -0.0566,-0.0648 -0.45375,0.90594 -0.88247,2.15717 l -0.77949,2.27495 h 1.58314 c 0.87073,0 1.58314,-0.0712 1.58314,-0.15824 z m 4.68871,4.45217 c -0.0663,-0.0663 -0.12059,-2.54423 -0.12059,-5.50646 v -5.38586 h 1.32835 1.32835 l 1.39762,4.01825 c 0.76869,2.21004 1.44769,4.11068 1.50889,4.22365 0.0612,0.11297 0.75692,-1.67621 1.54606,-3.97595 l 1.43479,-4.18135 1.31357,-0.0495 1.31357,-0.0495 -0.0446,5.46352 -0.0447,5.46352 h -0.84595 -0.84595 l -0.0846,-4.02204 -0.0846,-4.02204 -1.3328,3.76825 c -0.73304,2.07254 -1.40412,3.90563 -1.49128,4.07354 -0.12203,0.23507 -0.32134,0.29343 -0.86666,0.25378 l -0.70818,-0.0515 -1.43811,-4.03582 -1.43811,-4.03583 -0.0846,4.03583 -0.0846,4.03582 -0.76765,0.0501 c -0.42221,0.0276 -0.82192,-0.004 -0.88824,-0.0705 z m 13.35816,-0.008 c -0.062,-0.062 -0.1128,-2.53643 -0.1128,-5.49866 v -5.38586 h 3.89136 3.89135 v 0.84595 0.84595 h -2.96081 -2.96081 v 1.43811 1.43811 h 2.70703 2.70703 v 0.76135 0.76135 h -2.71338 -2.71338 l 0.0486,1.565 0.0487,1.565 2.91852,0.0463 2.91851,0.0463 v 0.84195 0.84195 h -3.77856 c -2.07821,0 -3.82932,-0.0508 -3.89135,-0.11279 z m 9.36181,-5.39431 v -5.50709 l 0.97284,0.0507 0.97283,0.0507 2.36865,3.87223 2.36866,3.87223 0.0846,-3.87223 0.0846,-3.87223 0.88825,-0.0511 0.88824,-0.0511 v 5.5075 5.50749 h -0.90431 c -0.65189,0 -0.97509,-0.0826 -1.15785,-0.29608 -0.13945,-0.16285 -1.27425,-1.97106 -2.52177,-4.01825 l -2.26824,-3.72216 -0.0454,4.01824 -0.0454,4.01825 h -0.84289 -0.84288 z M 32.995001,112.18753 c 0.06332,-0.3166 -0.04418,-0.78097 -0.31723,-1.37031 -0.227153,-0.49029 -0.413006,-1.07156 -0.413006,-1.29172 0,-0.50777 0.943352,-1.59639 1.38336,-1.59639 0.29804,0 0.278355,0.0665 -0.186718,0.63071 -0.632688,0.76757 -0.647651,1.15868 -0.08667,2.26572 0.510216,1.00686 0.45158,1.84087 -0.129426,1.84087 -0.289697,0 -0.33048,-0.078 -0.250308,-0.47888 z m 3.273809,-0.0844 c 0.06581,-0.40554 -0.03195,-0.80679 -0.349015,-1.43248 -0.242237,-0.47804 -0.440432,-1.00661 -0.440432,-1.17461 0,-0.44767 0.984401,-1.56688 1.37815,-1.56688 0.305918,0 0.288507,0.0605 -0.181508,0.63071 -0.629699,0.76394 -0.640852,1.00291 -0.09691,2.07632 0.584428,1.15332 0.544665,2.03027 -0.09206,2.03027 -0.256368,0 -0.293912,-0.0969 -0.218225,-0.56333 z m 2.901574,-0.0909 c 0.0477,-0.50017 -0.05137,-0.86441 -0.39423,-1.44946 -0.396988,-0.6774 -0.43191,-0.84275 -0.262376,-1.24223 0.271923,-0.64076 0.95803,-1.39137 1.271797,-1.39137 0.354783,0 0.329438,0.22482 -0.06565,0.58237 -0.638384,0.57773 -0.710673,1.18489 -0.245284,2.06017 0.519844,0.97769 0.507906,1.98313 -0.02445,2.05936 -0.304181,0.0436 -0.336215,-0.0273 -0.2798,-0.61884 z"
         id="path83"
         inkscape:connector-curvature="0" />
      <path
         style="fill:#b6b6b6;stroke-width:0.16918935"
         d="m 59.168203,118.76418 c -1.103894,-0.38103 -2.088222,-1.34685 -2.356174,-2.31189 -0.105849,-0.38121 -0.182507,-2.30316 -0.183055,-4.58952 l -9.44e-4,-3.93366 h 1.083661 1.083661 l 0.06182,3.84906 c 0.06854,4.26697 0.167746,4.70919 1.147517,5.11503 0.701871,0.29072 2.274471,0.14707 2.710582,-0.2476 0.565263,-0.51156 0.6784,-1.36567 0.679385,-5.12894 l 0.001,-3.60301 1.142028,0.05 1.142028,0.05 v 3.89135 c 0,3.34886 -0.04265,4.0019 -0.305967,4.68425 -0.803318,2.08175 -3.617654,3.0681 -6.205489,2.17487 z m -24.486392,-0.0724 c -0.943649,-0.30929 -2.05558,-0.97535 -2.619462,-1.5691 -0.578704,-0.60936 -1.122641,-1.83282 -1.259825,-2.83368 -0.09485,-0.69198 -0.07073,-0.77669 0.221068,-0.77669 0.263386,0 0.367667,0.19435 0.532508,0.99244 0.747871,3.62083 5.456981,4.95815 8.054799,2.28745 0.803448,-0.82599 1.11891,-1.43087 1.259761,-2.41555 0.08216,-0.57439 0.193984,-0.79179 0.430702,-0.83738 0.292021,-0.0562 0.31118,0.0213 0.22108,0.89425 -0.167914,1.62692 -1.448037,3.27982 -3.109228,4.01464 -0.97013,0.42913 -2.800716,0.54865 -3.731403,0.24362 z m 13.019104,-5.30636 0.04467,-5.37176 h 3.722165 3.722166 l 0.05074,0.97284 0.05074,0.97284 H 52.660517 50.02964 v 1.26892 1.26892 h 2.284056 2.284056 v 0.93054 0.93054 H 52.313696 50.02964 v 2.19946 2.19946 h -1.186703 -1.1867 z m 20.093612,-0.0423 v -5.41406 h 3.975949 3.97595 v 1.01105 1.01104 l -2.833922,0.0464 -2.833921,0.0464 -0.05003,1.14203 -0.05003,1.14203 h 2.630165 2.630165 v 0.93054 0.93054 h -2.629551 -2.629553 l 0.04941,1.31122 0.04941,1.31121 2.918516,0.0463 2.918516,0.0463 v 0.92654 0.92655 h -4.060544 -4.060544 z m 9.643792,0 v -5.41406 h 1.184326 1.184325 v 4.48352 4.48352 h 2.622435 2.622435 v 0.93054 0.93054 h -3.806761 -3.80676 z m 8.967035,0 v -5.41406 h 3.97595 3.975949 v 1.01514 1.01514 h -2.791624 -2.791624 v 1.18432 1.18433 h 2.53784 2.53784 v 0.93054 0.93054 h -2.53784 -2.53784 v 1.35351 1.35352 h 2.876219 2.876219 v 0.93054 0.93054 h -4.060544 -4.060545 z m 9.643793,-0.006 v -5.44644 l 2.918516,0.0715 c 2.565947,0.0629 3.023127,0.11767 3.784467,0.45341 1.70803,0.75321 2.60456,2.21766 2.73805,4.47249 0.14553,2.45819 -0.67353,4.36027 -2.28565,5.30789 -0.79955,0.46998 -0.85472,0.47735 -3.983083,0.53206 l -3.1723,0.0555 z m 5.869653,3.11571 c 0.94594,-0.70625 1.14791,-1.16612 1.20387,-2.74115 0.0449,-1.26408 -0.002,-1.57417 -0.33838,-2.22964 -0.54805,-1.06842 -1.48289,-1.5227 -3.133422,-1.5227 h -1.23307 v 3.48907 3.48908 l 1.523485,-0.0728 c 1.181897,-0.0565 1.625287,-0.14884 1.977517,-0.41183 z m 5.46603,-3.1328 v -5.43715 l 2.93348,0.0807 c 3.53174,0.0971 4.02532,0.25958 4.65666,1.53249 0.5697,1.14863 0.40545,2.17425 -0.48366,3.02004 l -0.64289,0.61156 0.57612,0.27474 c 0.91884,0.43816 1.27873,1.1741 1.21393,2.48235 -0.0647,1.30643 -0.48733,2.02454 -1.49357,2.53788 -0.58153,0.29668 -1.0013,0.33455 -3.70792,0.33455 h -3.05215 z m 6.01095,4.0507 c 0.85763,-0.39076 1.2145,-1.84826 0.64992,-2.65432 -0.46811,-0.66832 -1.23338,-0.86572 -3.35624,-0.86572 h -1.95111 v 1.86108 1.86109 h 2.1069 c 1.27315,0 2.28246,-0.08 2.55053,-0.20213 z m -0.14336,-5.14447 c 0.39826,-0.29681 0.48545,-0.49914 0.52811,-1.22551 0.0431,-0.73314 -0.0131,-0.93419 -0.35698,-1.27808 -0.45884,-0.45885 -1.80042,-0.67564 -3.58547,-0.57941 l -1.01514,0.0547 -0.0484,1.7485 -0.0484,1.7485 2.02461,-0.0566 c 1.73899,-0.0486 2.09189,-0.10676 2.50162,-0.41212 z m 7.32918,4.31737 v -2.21355 l -1.85319,-2.8585 c -2.52139,-3.88919 -2.38355,-3.54306 -1.40966,-3.53982 l 0.80961,0.003 1.57573,2.53515 c 0.86665,1.39432 1.62801,2.5324 1.69189,2.52906 0.0639,-0.003 0.80138,-1.14531 1.63887,-2.5377 l 1.5227,-2.53162 0.71906,-1.4e-4 c 0.39548,-8e-5 0.71904,0.057 0.71904,0.12675 -1e-5,0.0698 -0.87512,1.49733 -1.94469,3.1723 l -1.94467,3.04541 -0.001,2.24176 -9.6e-4,2.24176 h -0.76136 -0.76135 z m 6.76758,-3.20051 v -5.41406 h 2.59934 c 3.0346,0 4.1794,0.17769 4.95471,0.76905 0.7086,0.54048 0.89825,0.89693 1.01881,1.91492 0.12425,1.04905 -0.37448,2.24679 -1.12579,2.70369 l -0.52786,0.32101 0.58956,0.34784 c 0.68014,0.40129 0.94403,1.11042 0.95718,2.57215 0.005,0.5118 0.11025,1.21605 0.23478,1.565 l 0.22643,0.63446 h -0.9771 c -1.11862,0 -1.18249,-0.0744 -1.18249,-1.37703 0,-0.46298 -0.0871,-1.18785 -0.19365,-1.61082 -0.29306,-1.16384 -0.81217,-1.40965 -2.97865,-1.41044 l -1.73419,-6.3e-4 v 2.19946 2.19946 h -0.93054 -0.93054 z m 6.03647,-0.67361 c 0.70035,-0.45348 0.93437,-1.53605 0.51271,-2.3718 -0.30082,-0.59622 -1.13327,-0.82536 -3.03851,-0.83639 l -1.64959,-0.01 v 1.79475 1.79474 l 1.90338,-0.0665 c 1.2505,-0.0437 2.02982,-0.1484 2.27201,-0.30523 z m 3.58588,5.28402 c 0.1716,-0.44201 1.09538,-2.87833 2.05286,-5.41406 l 1.74085,-4.61041 h 0.96626 0.96626 l 1.95347,5.11798 c 1.0744,2.81489 2.00689,5.25122 2.07219,5.41406 0.10517,0.26226 0.003,0.29608 -0.89534,0.29608 h -1.01407 l -0.48444,-1.39581 -0.48443,-1.39581 -2.14506,-0.0473 -2.14505,-0.0473 -0.46996,1.44308 -0.46996,1.44307 h -0.97779 -0.97779 z m 6.28144,-3.54616 c 0,-0.25054 -1.43256,-4.448 -1.51783,-4.44733 -0.0492,3.4e-4 -0.44766,1.02821 -0.88546,2.28406 l -0.796,2.28335 h 1.59965 c 0.8798,0 1.59964,-0.054 1.59964,-0.12008 z m 4.60804,-1.02195 0.0447,-5.37176 1.28015,-0.0489 1.28016,-0.0489 1.41096,4.1094 c 0.77603,2.26017 1.46599,4.17249 1.53324,4.24961 0.0673,0.0771 0.75964,-1.75014 1.53862,-4.06055 l 1.41634,-4.20075 1.31121,-0.0494 1.31122,-0.0494 v 5.42118 5.42117 h -0.92748 -0.92748 l -0.0454,-4.01825 -0.0454,-4.01824 -1.41808,4.01824 -1.41809,4.01825 h -0.79836 -0.79836 l -1.45461,-4.10284 -1.4546,-4.10284 -0.009,4.10284 -0.009,4.10284 h -0.93292 -0.93292 z m 13.36595,0 0.0447,-5.37176 h 3.80676 3.80676 l 0.0516,0.80365 0.0516,0.80365 h -2.97008 -2.97008 v 1.43811 1.43811 h 2.70703 2.70703 v 0.76135 0.76135 h -2.70703 -2.70703 v 1.6073 1.6073 h 2.96081 2.96081 v 0.76135 0.76135 h -3.89373 -3.89373 z m 9.43469,-0.0507 v -5.4225 l 0.9655,0.0507 0.96551,0.0507 2.30001,3.76461 c 1.26499,2.07054 2.39128,3.85591 2.50286,3.96749 0.15771,0.15771 0.20288,-0.68985 0.20288,-3.80691 v -4.00979 h 0.84595 0.84594 v 5.42214 5.42213 l -1.03437,-0.0504 -1.03436,-0.0504 -2.27673,-3.72217 c -1.2522,-2.04719 -2.3475,-3.79449 -2.43401,-3.88289 -0.097,-0.0992 -0.15729,1.34321 -0.15729,3.76446 v 3.92519 h -0.84595 -0.84594 z m -137.638736,-1.1613 c 0.07764,-0.35347 -0.01433,-0.73493 -0.324936,-1.34789 -0.238266,-0.4702 -0.433213,-1.03043 -0.433213,-1.24495 0,-0.45502 0.928232,-1.65148 1.281237,-1.65148 0.337614,0 0.304157,0.13044 -0.181506,0.70762 -0.528744,0.62837 -0.530921,1.04338 -0.01149,2.19045 0.475992,1.05116 0.430458,1.83923 -0.106268,1.83923 -0.278795,0 -0.314719,-0.0791 -0.223821,-0.49298 z m 3.245896,-0.0703 c 0.06624,-0.40821 -0.0335,-0.80985 -0.362226,-1.45855 -0.287123,-0.56661 -0.417759,-1.03819 -0.355886,-1.28471 0.144418,-0.57541 0.92468,-1.43071 1.305192,-1.43071 0.294246,0 0.271243,0.0748 -0.205604,0.66812 -0.59635,0.74208 -0.594912,0.91641 0.01909,2.31237 0.437342,0.99432 0.36466,1.75681 -0.167461,1.75681 -0.273225,0 -0.310069,-0.089 -0.233102,-0.56333 z m 2.900574,-0.0804 c 0.04507,-0.47258 -0.06366,-0.89922 -0.386549,-1.51672 -0.423092,-0.80915 -0.434035,-0.88704 -0.187918,-1.33733 0.399204,-0.73038 0.885359,-1.2395 1.183596,-1.2395 0.360107,0 0.339368,0.22222 -0.05396,0.57818 -0.177607,0.16073 -0.41442,0.51313 -0.526252,0.78312 -0.1796,0.43359 -0.150621,0.58084 0.248252,1.26146 0.555465,0.94783 0.557299,1.99985 0.0036,2.07914 -0.303377,0.0434 -0.336182,-0.0276 -0.2808,-0.60835 z"
         id="path81"
         inkscape:connector-curvature="0" />
      <path
         style="fill:#a6a6a6;stroke-width:0.16918935"
         d="m 59.728662,118.92912 c -1.502295,-0.31876 -2.577799,-1.29078 -2.9165,-2.63588 -0.105049,-0.41719 -0.184132,-2.33403 -0.184132,-4.4631 v -3.73184 h 1.099731 1.099731 l 10e-4,3.51068 c 0.0014,4.94354 0.149846,5.31186 2.188337,5.42705 1.082507,0.0612 1.182556,0.0352 1.721764,-0.44628 l 0.572472,-0.51122 0.05355,-3.99011 0.05355,-3.99012 h 1.08848 1.088481 l -10e-4,3.84906 c -5.07e-4,2.16366 -0.07865,4.1289 -0.178418,4.48814 -0.233559,0.84105 -1.089356,1.79567 -1.951762,2.17716 -0.82251,0.36384 -2.744523,0.52668 -3.735279,0.31646 z m -24.698709,-0.17189 c -2.190868,-0.45528 -3.869248,-2.19386 -4.205756,-4.35662 -0.101457,-0.65208 -0.07897,-0.71906 0.241371,-0.71906 0.238207,0 0.35325,0.10813 0.35325,0.33203 0,0.18262 0.156536,0.75041 0.347857,1.26177 0.808673,2.16137 3.442409,3.44704 5.7488,2.80629 1.457617,-0.40494 3.045231,-1.94704 3.310682,-3.21576 0.04867,-0.23264 0.123237,-0.59428 0.165699,-0.80365 0.04246,-0.20937 0.199855,-0.38068 0.349765,-0.38068 0.222474,0 0.256982,0.13826 0.18777,0.75229 -0.315667,2.80059 -3.531962,4.94005 -6.499438,4.32339 z m 12.631042,-5.32946 v -5.32947 h 3.80676 3.806761 v 0.93054 0.93055 h -2.622435 -2.622435 v 1.26892 1.26892 h 2.199461 2.199462 v 0.93054 0.93054 h -2.199462 -2.199461 v 2.19946 2.19946 h -1.184325 -1.184326 z m 20.133532,0 v -5.32947 h 3.975949 3.97595 v 0.93054 0.93055 h -2.876219 -2.876219 v 1.18432 1.18433 h 2.622435 2.622435 v 0.93054 0.93054 h -2.622435 -2.622435 v 1.35351 1.35352 h 2.876219 2.876219 v 0.93054 0.93054 h -3.97595 -3.975949 z m 9.643792,0 v -5.32947 h 1.184326 1.184325 v 4.39893 4.39892 h 2.622435 2.622435 v 0.93054 0.93054 h -3.806761 -3.80676 z m 8.967035,0 v -5.32947 h 3.97595 3.975949 v 0.93054 0.93055 h -2.876218 -2.876219 v 1.18432 1.18433 h 2.622435 2.622434 v 0.93054 0.93054 h -2.62955 -2.629553 l 0.04941,1.31122 0.04941,1.31121 2.918517,0.0463 2.918516,0.0463 v 0.92654 0.92655 h -4.060544 -4.060545 z m 9.643793,-0.0132 v -5.34265 l 3.1723,0.0555 c 3.537763,0.0619 4.061853,0.20328 5.038863,1.35924 0.92481,1.09419 1.17354,1.91041 1.17632,3.86003 0.002,1.66966 -0.0316,1.84946 -0.54849,2.89931 -1.04313,2.11891 -1.97792,2.51119 -5.984047,2.51119 h -2.854946 v -5.34264 z m 5.856753,3.04813 c 0.73971,-0.55261 1.07849,-1.11681 1.21493,-2.02331 0.17568,-1.16716 -0.0262,-2.73106 -0.42086,-3.2596 -0.6964,-0.93276 -1.15805,-1.1318 -2.771589,-1.19496 l -1.510583,-0.0591 v 3.50205 3.50205 l 1.510583,-0.0591 c 1.200129,-0.047 1.606549,-0.13083 1.977519,-0.40797 z m 5.47893,-3.03495 v -5.32947 h 2.97754 c 2.38392,0 3.09174,0.0542 3.55031,0.2718 0.62541,0.29677 1.15578,1.03902 1.32909,1.86006 0.15463,0.73252 -0.28806,1.92681 -0.90063,2.4297 l -0.50723,0.41642 0.62452,0.34748 c 1.75455,0.97623 1.57436,3.95308 -0.29926,4.94387 -0.68945,0.36459 -0.93054,0.3896 -3.75554,0.3896 h -3.0188 z m 6.1147,3.91558 c 0.86398,-0.56611 1.11962,-2.09428 0.46744,-2.79431 -0.55181,-0.5923 -1.03897,-0.6983 -3.20936,-0.6983 h -2.01926 v 1.84698 c 0,1.31369 0.0611,1.87466 0.21148,1.94282 0.11632,0.0527 1.09049,0.071 2.16483,0.0407 1.46941,-0.0415 2.06024,-0.12519 2.38487,-0.33789 z m -0.0695,-5.23065 c 0.36908,-0.36945 0.46864,-0.62627 0.46864,-1.20886 0,-1.38448 -0.79147,-1.7879 -3.51068,-1.78946 l -1.64959,-9.4e-4 v 1.79029 1.79028 l 2.11149,-0.0561 c 2.04834,-0.0544 2.12552,-0.0701 2.58014,-0.52522 z m 7.15162,4.41549 v -2.22904 l -1.94568,-3.01501 c -1.07012,-1.65825 -1.94567,-3.05344 -1.94567,-3.10042 0,-0.047 0.33827,-0.0854 0.75173,-0.0854 h 0.75172 l 1.38809,2.24176 c 0.76345,1.23297 1.48173,2.37861 1.59617,2.54586 0.18369,0.26845 0.39023,0.006 1.76184,-2.24176 l 1.55375,-2.54586 h 0.77052 c 0.75976,0 0.76705,0.005 0.52242,0.38068 -0.13645,0.20937 -1.05883,1.64403 -2.04973,3.18813 l -1.80164,2.80745 v 2.14133 2.14134 h -0.67676 -0.67676 z m 6.76758,-3.10042 v -5.32947 h 3.17874 c 2.96116,0 3.23016,0.0261 3.92978,0.38068 0.99071,0.50216 1.4317,1.27454 1.42405,2.49417 -0.007,1.11051 -0.38988,1.92059 -1.11679,2.36265 l -0.51968,0.31603 0.49496,0.25596 c 0.67657,0.34987 0.91104,0.94873 1.07066,2.73457 0.0748,0.83749 0.18925,1.65595 0.25421,1.81879 0.10398,0.26065 0.006,0.29608 -0.82286,0.29608 -1.06884,0 -1.02213,0.0852 -1.18613,-2.16321 -0.0861,-1.17999 -0.41817,-1.83045 -1.05896,-2.07407 -0.23383,-0.0889 -1.18154,-0.16164 -2.10602,-0.16164 h -1.68088 v 2.19946 2.19946 h -0.93054 -0.93054 z m 5.73233,-0.61051 c 0.61237,-0.21348 1.03524,-0.89818 1.03524,-1.67627 0,-1.29013 -0.75812,-1.68917 -3.20916,-1.68917 h -1.69733 v 1.77649 1.77648 h 1.66664 c 0.91666,0 1.90873,-0.0844 2.20461,-0.18753 z m 5.03179,2.18355 c 0.78734,-2.07488 1.70402,-4.48015 2.03708,-5.34505 l 0.60556,-1.57254 1.00682,0.0498 1.00682,0.0498 1.76568,4.6527 c 0.97113,2.55899 1.8787,4.93822 2.01682,5.28717 l 0.25113,0.63446 h -0.97353 -0.97352 l -0.4985,-1.43811 -0.49851,-1.43811 h -2.14215 -2.14215 l -0.50605,1.39581 -0.50606,1.39582 -0.94048,0.0503 -0.94049,0.0503 z m 4.49756,-2.75666 c -0.4378,-1.25585 -0.84679,-2.28367 -0.90888,-2.28406 -0.0621,-3.4e-4 -0.43005,0.93195 -0.8177,2.07186 -0.38766,1.13992 -0.74292,2.16774 -0.78947,2.28406 -0.0643,0.16077 0.32269,0.21149 1.61371,0.21149 h 1.69834 z m 5.21023,1.18362 v -5.32947 h 1.33798 1.33798 l 0.33171,0.97284 c 1.32156,3.87592 2.46858,7.08525 2.57374,7.20124 0.0686,0.0757 0.76326,-1.73195 1.54369,-4.01694 l 1.41896,-4.15452 1.31121,-10e-4 1.31122,-0.001 v 5.32947 5.32946 h -0.84594 -0.84595 v -4.17898 c 0,-2.33538 -0.064,-4.10806 -0.14509,-4.01824 -0.0798,0.0884 -0.78274,1.96894 -1.56209,4.17897 l -1.417,4.01825 -0.76426,-6.7e-4 -0.76427,-6.8e-4 -1.41652,-4.01753 c -0.77909,-2.20964 -1.48334,-4.08985 -1.56501,-4.17825 -0.0855,-0.0926 -0.14847,1.61162 -0.14847,4.01824 v 4.17898 h -0.84595 -0.84594 z m 13.36595,0 v -5.32947 h 3.89136 3.89135 v 0.76135 0.76136 h -2.96081 -2.96081 v 1.43811 1.43811 h 2.70703 2.70703 v 0.76135 0.76135 h -2.70703 -2.70703 v 1.6073 1.6073 h 2.96081 2.96081 v 0.76135 0.76135 h -3.89135 -3.89136 z m 9.47461,0 v -5.32947 h 0.97308 0.97309 l 2.36841,3.88628 c 1.30262,2.13746 2.4255,3.88857 2.49529,3.89136 0.0698,0.003 0.12689,-1.74604 0.12689,-3.88628 v -3.89136 h 0.84595 0.84594 v 5.32947 5.32946 h -0.99906 -0.99905 l -2.42703,-3.97811 -2.42703,-3.97811 -0.0454,3.97811 -0.0454,3.97811 h -0.84289 -0.84288 z m -137.635862,-1.2968 c 0.0788,-0.42327 -0.0032,-0.76731 -0.328011,-1.37687 -0.238185,-0.44693 -0.433062,-0.96531 -0.433062,-1.15195 0,-0.40903 0.980077,-1.67302 1.297236,-1.67302 0.303706,0 0.284788,0.24772 -0.03947,0.51683 -0.145716,0.12093 -0.379678,0.44176 -0.519912,0.71294 -0.238784,0.46176 -0.226514,0.54931 0.193241,1.37895 0.519059,1.0259 0.533681,2.0041 0.03138,2.0993 -0.261986,0.0497 -0.291209,-0.0238 -0.201398,-0.50618 z m 3.252098,-0.13268 c 0.07013,-0.52289 -0.0069,-0.8329 -0.354479,-1.42594 -0.244251,-0.41679 -0.444094,-0.86248 -0.444094,-0.99042 0,-0.35159 1.010513,-1.6528 1.283556,-1.6528 0.335205,0 0.30109,0.13133 -0.183826,0.70762 -0.535995,0.63699 -0.532557,1.08021 0.0166,2.13866 0.503389,0.97026 0.455413,1.89102 -0.09853,1.89102 -0.261981,0 -0.29524,-0.10136 -0.219218,-0.66814 z m 2.977071,0.18926 c 0.06332,-0.3166 -0.04418,-0.78097 -0.31723,-1.37031 -0.543901,-1.17396 -0.521898,-1.52144 0.145214,-2.29317 0.750248,-0.86791 1.170957,-0.73209 0.468874,0.15137 -0.628242,0.79054 -0.633672,0.90077 -0.09655,1.96072 0.563362,1.11174 0.545604,2.03027 -0.03925,2.03027 -0.191715,0 -0.232549,-0.12141 -0.161055,-0.47888 z"
         id="path79"
         inkscape:connector-curvature="0" />
      <path
         style="fill:#989898;stroke-width:0.16918935"
         d="m 59.972821,118.92432 c -1.222519,-0.21093 -2.158758,-0.81128 -2.745696,-1.76062 l -0.5145,-0.83218 -0.05551,-4.11661 -0.05551,-4.11661 h 1.112947 1.112946 v 3.64301 c 0,3.95638 0.105401,4.54515 0.907797,5.0709 0.559551,0.36663 2.076046,0.38115 2.761984,0.0264 0.804324,-0.41593 0.898331,-0.9437 0.898331,-5.04342 v -3.69692 h 1.099731 1.09973 l -0.001,3.76447 c -0.001,3.92179 -0.09002,4.60957 -0.71988,5.56085 -0.752935,1.13715 -3.007544,1.82746 -4.90142,1.5007 z m -24.662648,-0.175 c -1.828492,-0.30942 -3.15777,-1.25404 -3.872355,-2.75179 -0.274755,-0.57588 -0.54715,-1.33257 -0.605322,-1.68152 -0.09152,-0.54897 -0.06214,-0.63446 0.218001,-0.63446 0.247825,0 0.344305,0.15312 0.411324,0.65278 0.456441,3.40303 4.885686,5.10861 7.697359,2.96404 0.862996,-0.65824 1.52257,-1.67434 1.751827,-2.69877 0.135189,-0.60409 0.290897,-0.91805 0.455307,-0.91805 0.198821,0 0.228528,0.15563 0.14543,0.76189 -0.204827,1.49437 -1.216606,2.92712 -2.594649,3.67419 -0.720049,0.39036 -1.107418,0.50003 -2.507191,0.70981 -0.186108,0.0279 -0.680987,-0.007 -1.099731,-0.0781 z m 12.520011,-5.32155 v -5.32947 h 3.637571 3.637571 v 0.93054 0.93055 h -2.53784 -2.53784 v 1.26892 1.26892 h 2.199461 2.199462 v 0.93054 0.93054 h -2.199462 -2.199461 v 2.19946 2.19946 h -1.099731 -1.099731 z m 19.964343,0 v -5.32947 h 3.975949 3.97595 v 0.93054 0.93055 h -2.876219 -2.876219 v 1.18432 1.18433 h 2.622435 2.622435 v 0.84154 0.84154 l -2.580138,0.0467 -2.580137,0.0467 -0.04914,1.39582 -0.04914,1.39581 h 2.883061 2.883061 v 0.93054 0.93054 h -3.97595 -3.975949 z m 9.643792,0 v -5.32947 h 1.184326 1.184325 v 4.39893 4.39892 h 2.53784 2.53784 v 0.93054 0.93054 h -3.722165 -3.722166 z m 8.967035,0 v -5.32947 h 3.97595 3.975949 v 0.93054 0.93055 h -2.876218 -2.876219 v 1.18432 1.18433 h 2.622435 2.622434 v 0.84154 0.84154 l -2.580137,0.0467 -2.580138,0.0467 -0.04914,1.39582 -0.04914,1.39581 h 2.883061 2.88306 v 0.93054 0.93054 h -3.975949 -3.97595 z m 9.812982,0.0137 v -5.34316 h 2.761485 c 2.074119,0 2.956959,0.0666 3.546789,0.26758 0.90758,0.30924 1.94977,1.25028 2.37342,2.14306 1.03204,2.17486 0.61977,5.51177 -0.8556,6.92532 -1.20688,1.15632 -1.4882,1.23181 -4.822983,1.29419 l -3.003111,0.0562 z m 5.858474,2.99274 c 0.80609,-0.57499 1.14702,-1.44045 1.15099,-2.92184 0.003,-0.99526 -0.083,-1.44638 -0.39741,-2.09176 -0.5331,-1.09442 -1.29481,-1.45239 -3.101375,-1.45751 l -1.311217,-0.004 v 3.48471 3.48471 l 1.565001,-0.0586 c 1.288501,-0.0483 1.658461,-0.12529 2.094011,-0.43597 z m 5.30802,-3.00644 v -5.32947 h 2.88166 c 3.11776,0 3.64305,0.10884 4.37946,0.90744 0.30099,0.32641 0.42996,0.69689 0.48856,1.40351 0.0946,1.14037 -0.22198,1.86583 -1.01976,2.33709 l -0.5247,0.30995 0.67614,0.31823 c 1.53912,0.72438 1.89715,3.01824 0.6786,4.3476 -0.80416,0.87727 -1.47962,1.02737 -4.64144,1.0314 l -2.91852,0.004 z m 5.82036,4.07841 c 0.76236,-0.31853 1.11641,-0.87622 1.11641,-1.75853 0,-1.59009 -0.55965,-1.89691 -3.45998,-1.89691 h -2.12327 v 1.94568 1.94568 h 1.95111 c 1.28588,0 2.14362,-0.0804 2.51573,-0.23592 z m -0.14779,-5.04189 c 0.79045,-0.36015 1.14636,-1.49739 0.74459,-2.37917 -0.33283,-0.73048 -0.78851,-0.87403 -2.99107,-0.94227 l -2.07257,-0.0642 v 1.79389 1.79388 h 1.93771 c 1.14198,0 2.1199,-0.083 2.38134,-0.20212 z m 7.69339,4.1556 v -2.13735 l -1.91876,-2.98063 c -1.05532,-1.63935 -1.97343,-3.0758 -2.04026,-3.19212 -0.0894,-0.15557 0.0756,-0.21149 0.62392,-0.21149 h 0.74541 l 1.57185,2.53348 c 0.86451,1.39341 1.62571,2.50018 1.69155,2.45949 0.0658,-0.0407 0.79009,-1.18075 1.60945,-2.53347 l 1.48975,-2.4595 h 0.72977 0.72976 l -2.02406,3.16068 -2.02405,3.16068 v 2.16878 2.16879 h -0.59217 -0.59216 z m 6.59839,-3.20482 v -5.34217 l 3.34148,0.055 c 3.10848,0.0512 3.38373,0.0813 3.94716,0.43168 0.91855,0.57127 1.2284,1.2838 1.14281,2.62799 -0.0765,1.20183 -0.30205,1.59993 -1.23039,2.17193 l -0.49705,0.30626 0.41246,0.15767 c 0.82597,0.31574 1.05095,0.77945 1.26656,2.61058 0.1121,0.95208 0.25944,1.8643 0.32742,2.02714 0.10897,0.26104 0.0137,0.29608 -0.80532,0.29608 -1.07375,0 -1.13135,-0.0883 -1.13525,-1.73962 -10e-4,-0.53805 -0.10847,-1.23235 -0.23822,-1.54289 -0.40563,-0.97081 -0.78798,-1.11641 -2.93174,-1.11641 h -1.90803 v 2.19946 2.19946 h -0.84595 -0.84594 z m 5.92501,-0.66581 c 0.62634,-0.32389 0.84256,-0.73064 0.84256,-1.58499 0,-0.47295 -0.12356,-0.82223 -0.40793,-1.15315 -0.40102,-0.46667 -0.44396,-0.47566 -2.53784,-0.5308 l -2.12991,-0.0561 v 1.79029 1.79028 h 1.86948 c 1.33655,0 2.01036,-0.0728 2.36364,-0.25553 z m 3.54959,5.89346 c 0,-0.0727 0.88581,-2.47494 1.96846,-5.3383 l 1.96847,-5.20612 h 0.97133 0.97132 l 0.9792,2.58014 c 0.53856,1.41908 1.45406,3.82091 2.03445,5.3374 l 1.05524,2.75727 -0.95599,-0.0502 -0.95599,-0.0502 -0.48608,-1.40058 -0.48608,-1.40058 -2.20689,0.0471 -2.20689,0.0471 -0.45054,1.35351 -0.45053,1.35352 -0.87474,0.0511 c -0.48111,0.0281 -0.87474,-0.008 -0.87474,-0.0811 z m 5.78368,-6.48387 c -0.43185,-1.30276 -0.82492,-2.36834 -0.87348,-2.36795 -0.0486,3.4e-4 -0.42412,0.97112 -0.83456,2.15717 -0.41044,1.18605 -0.78023,2.25162 -0.82175,2.36794 -0.0572,0.16014 0.33608,0.21149 1.61973,0.21149 h 1.69523 z m 5.38281,1.26892 v -5.32947 h 1.23435 1.23434 l 1.41597,4.10284 c 0.77879,2.25657 1.47142,4.16704 1.5392,4.24549 0.0678,0.0785 0.75834,-1.76782 1.53459,-4.10284 l 1.41136,-4.24549 h 1.22915 1.22916 v 5.32947 5.32946 h -0.76135 -0.76135 v -4.15512 c 0,-2.28532 -0.0642,-4.11545 -0.14267,-4.06695 -0.0785,0.0485 -0.78272,1.92052 -1.565,4.16005 l -1.42233,4.07189 -0.76136,-0.0472 -0.76135,-0.0472 -1.43811,-4.10048 c -0.79096,-2.25527 -1.49521,-4.10155 -1.565,-4.10284 -0.0698,-0.001 -0.12689,1.86295 -0.12689,4.14277 v 4.14514 h -0.76135 -0.76136 z m 13.36596,0 v -5.32947 h 3.72217 3.72216 v 0.76135 0.76136 h -2.87622 -2.87621 v 1.43811 1.43811 h 2.70703 2.70703 v 0.76135 0.76135 h -2.70703 -2.70703 v 1.6073 1.6073 h 2.96081 2.96081 v 0.76135 0.76135 h -3.80676 -3.80676 z m 9.30542,0 v -5.32947 l 0.97284,0.007 0.97283,0.007 2.36865,3.89968 c 1.30276,2.14483 2.42576,3.93555 2.49555,3.97938 0.0698,0.0438 0.12689,-1.71398 0.12689,-3.90624 v -3.98595 h 0.84595 0.84594 v 5.32947 5.32946 h -0.97397 -0.97395 l -2.45213,-4.01825 -2.45212,-4.01824 -0.0454,4.01824 -0.0454,4.01825 h -0.84289 -0.84288 z m -137.609172,-1.314 c 0.06828,-0.42077 -0.02796,-0.81302 -0.360491,-1.46924 -0.499977,-0.98666 -0.475585,-1.36955 0.130551,-2.04929 0.333591,-0.3741 0.964931,-0.76633 0.964931,-0.59949 0,0.0308 -0.228405,0.34343 -0.507568,0.69472 -0.616981,0.77637 -0.621189,0.88676 -0.07489,1.96484 0.488441,0.96389 0.507863,1.88981 0.04149,1.97811 -0.238227,0.0451 -0.271301,-0.0435 -0.194028,-0.51965 z m 3.240973,-0.0941 c 0.04432,-0.46468 -0.06517,-0.90947 -0.373758,-1.51845 -0.284884,-0.56219 -0.393047,-0.97254 -0.311489,-1.18173 0.198565,-0.50931 1.038631,-1.42417 1.244673,-1.35549 0.109061,0.0363 0.0024,0.2828 -0.25452,0.58814 -0.532818,0.63322 -0.557976,1.19388 -0.09435,2.10265 0.403002,0.78996 0.394891,1.89576 -0.01448,1.97316 -0.204418,0.0386 -0.245592,-0.0891 -0.196079,-0.60828 z m 2.995095,0.0969 c 0.07563,-0.40631 -0.01071,-0.76201 -0.330713,-1.36247 -0.560196,-1.05116 -0.545918,-1.35086 0.102821,-2.15813 0.730604,-0.90914 1.142531,-0.87886 0.480314,0.0353 -0.612999,0.84621 -0.626893,1.20356 -0.08124,2.08948 0.558922,0.90746 0.542817,1.94567 -0.03018,1.94567 -0.18275,0 -0.217862,-0.13692 -0.140999,-0.54986 z"
         id="path77"
         inkscape:connector-curvature="0" />
    </g>
  </g>
</svg>
