<?xml version="1.0" encoding="UTF-8" standalone="no"?>
<svg
   xmlns:dc="http://purl.org/dc/elements/1.1/"
   xmlns:cc="http://creativecommons.org/ns#"
   xmlns:rdf="http://www.w3.org/1999/02/22-rdf-syntax-ns#"
   xmlns:svg="http://www.w3.org/2000/svg"
   xmlns="http://www.w3.org/2000/svg"
   xmlns:xlink="http://www.w3.org/1999/xlink"
   version="1.1"
   id="Layer_1"
   x="0px"
   y="0px"
   width="308px"
   height="273px"
   viewBox="0 0 308 273"
   enable-background="new 0 0 308 273"
   xml:space="preserve"><metadata
   id="metadata8"><rdf:RDF><cc:Work
       rdf:about=""><dc:title></dc:title></cc:Work></rdf:RDF></metadata><defs
   id="defs6"><linearGradient
     id="linearGradient50"><stop
       style="stop-color:#979b9e;stop-opacity:1;"
       offset="0"
       id="stop46" /><stop
       style="stop-color:#979b9e;stop-opacity:0;"
       offset="1"
       id="stop48" /></linearGradient><linearGradient
     id="linearGradient42"><stop
       style="stop-color:#979b9e;stop-opacity:1;"
       offset="0"
       id="stop38" /><stop
       style="stop-color:#ffffff;stop-opacity:1"
       offset="1"
       id="stop40" /></linearGradient><linearGradient
     xlink:href="#linearGradient42"
     id="linearGradient44"
     x1="156.44336"
     y1="70.242188"
     x2="156.92517"
     y2="108.10401"
     gradientUnits="userSpaceOnUse" /><linearGradient
     xlink:href="#linearGradient50"
     id="linearGradient52"
     x1="157.42336"
     y1="269.01459"
     x2="157.33789"
     y2="234.69058"
     gradientUnits="userSpaceOnUse" /></defs>  <g
   id="g165"><path
     d="m 31.780506,188.83428 v 14.71286 h 4.681925 q 5.610571,0 7.854799,-1.64595 2.282921,-1.64597 2.282921,-5.71048 0,-4.06451 -2.282921,-5.71047 -2.244228,-1.64596 -7.854799,-1.64596 z M 20.365899,180.5037 h 15.670903 q 11.956319,0 17.179953,3.69501 5.262328,3.69502 5.262328,11.992 0,8.29698 -5.262328,11.992 -5.223634,3.69501 -17.179953,3.69501 h -4.256296 v 18.77739 H 20.365899 Z"
     style="font-style:normal;font-variant:normal;font-weight:bold;font-stretch:normal;font-size:73.8348px;line-height:1.25;font-family:monospace;-inkscape-font-specification:'monospace Bold';letter-spacing:0px;word-spacing:0px;stroke-width:2.7688;opacity:1;fill:#979b9e;fill-opacity:1"
     id="path111" /><path
     d="M 102.85812,230.65511 H 66.168554 V 180.5037 h 36.689566 v 8.73367 H 76.526374 v 10.81631 H 100.5365 v 8.73367 H 76.526374 v 13.13409 h 26.331746 z"
     style="font-style:normal;font-variant:normal;font-weight:bold;font-stretch:normal;font-size:73.8348px;line-height:1.25;font-family:monospace;-inkscape-font-specification:'monospace Bold';letter-spacing:0px;word-spacing:0px;opacity:1;stroke-width:2.7688;fill:#979b9e;fill-opacity:1"
     id="path113" /><path
     d="m 142.4562,206.44504 c 1.25408,0.20155 5.25244,1.62265 6.06732,2.4676 4.12014,4.27226 3.61034,10.44678 3.79752,17.09008 0.0294,1.04521 1.66626,4.65239 1.66626,4.65239 h -10.32927 c 0,0 -1.61924,-1.94209 -1.6934,-3.68111 -0.21744,-5.0988 0.34326,-10.82619 -1.95461,-13.45496 -2.89826,-3.31559 -9.15452,-2.68264 -12.20422,-2.68264 h -5.60395 v 19.81871 h -11.0269 V 180.5037 l 19.44561,-0.35226 c 8.2072,-0.14868 13.03741,0.96597 16.60015,3.25016 3.59124,2.28419 5.73912,6.52998 5.73912,11.68061 0,3.44867 -1.06882,6.19194 -3.20647,8.2298 -2.13765,2.03785 -3.2784,2.72994 -7.29716,3.13303 z m -20.25435,-17.61076 v 13.67154 h 11.22658 c 3.44873,0 5.91415,-0.52626 7.39624,-1.57878 1.51061,-1.07491 2.26591,-2.83283 2.26591,-5.27378 0,-2.44095 -0.74105,-4.18769 -2.22316,-5.24021 -1.48209,-1.05251 -3.96176,-1.57877 -7.43899,-1.57877 z"
     style="font-style:normal;font-variant:normal;font-weight:bold;font-stretch:normal;font-size:73.8348px;line-height:1.25;font-family:monospace;-inkscape-font-specification:'monospace Bold';letter-spacing:0px;word-spacing:0px;opacity:1;stroke-width:2.91042;fill:#979b9e;fill-opacity:1"
     id="path115" /><path
     d="M 162.18846,230.65511 V 180.5037 h 10.18168 v 41.41774 h 25.12019 v 8.73367 z"
     style="font-style:normal;font-variant:normal;font-weight:bold;font-stretch:normal;font-size:73.8348px;line-height:1.25;font-family:monospace;-inkscape-font-specification:'monospace Bold';letter-spacing:0px;word-spacing:0px;opacity:1;stroke-width:2.7688;fill:#979b9e;fill-opacity:1"
     id="path117" /><path
     d="M 239.92186,230.65511 H 202.88004 V 180.5037 h 37.04182 v 8.73367 H 212.8856 v 10.81631 h 24.71466 v 8.73367 H 212.8856 v 13.13409 h 27.03626 z"
     style="font-style:normal;font-variant:normal;font-weight:bold;font-stretch:normal;font-size:73.8348px;line-height:1.25;font-family:monospace;-inkscape-font-specification:'monospace Bold';letter-spacing:0px;word-spacing:0px;stroke-width:2.7688;opacity:1;fill:#979b9e;fill-opacity:1"
     id="path119" /><path
     d="m 246.7558,180.5037 h 12.902 l 19.57333,36.44627 V 180.5037 h 11.11048 v 50.15141 H 276.9926 l -19.65472,-36.44627 v 36.44627 H 246.7558 Z"
     style="font-style:normal;font-variant:normal;font-weight:bold;font-stretch:normal;font-size:73.8348px;line-height:1.25;font-family:monospace;-inkscape-font-specification:'monospace Bold';letter-spacing:0px;word-spacing:0px;stroke-width:2.83969;opacity:1;fill:#979b9e;fill-opacity:1"
     id="path121" /></g><path
   id="path10"
   style="fill:url(#linearGradient44);stroke-width:1.08702;stroke-linecap:round;stroke-linejoin:round;stop-color:#000000;fill-opacity:1"
   d="M 155.18164 20.175781 C 153.13461 30.507226 154.12261 57.943418 146.71289 59.033203 C 140.48133 59.94971 129.02734 41.347656 129.02734 41.347656 L 140.07422 71.605469 A 101.37865 100.88048 0 0 0 73.552734 113.375 C 75.649974 113.04147 77.782149 112.81068 79.945312 112.69141 A 96.622615 96.147812 0 0 1 156.67578 74.974609 A 96.622615 96.147812 0 0 1 233.32812 112.58789 L 234.39062 112.58789 C 236.07799 112.58789 237.74391 112.67379 239.39648 112.80469 A 101.37865 100.88048 0 0 0 171.57812 71.337891 L 181.08594 41.347656 C 181.08594 41.347656 168.2193 63.500493 161.90625 57.789062 C 155.93261 52.384703 158.20354 30.707726 155.18164 20.175781 z " />
<path
   style="fill:url(#linearGradient52);stroke-width:1.08702;stroke-linecap:round;stroke-linejoin:round;stop-color:#000000;fill-opacity:1"
   d="m 79.462891,236.49414 a 101.37865,100.88048 0 0 0 77.212889,35.50977 101.37865,100.88048 0 0 0 77.0957,-35.3711 h -6.37304 a 96.622615,96.147812 0 0 1 -70.72266,30.63867 96.622615,96.147812 0 0 1 -70.722655,-30.63867 h -2.507813 c -1.339381,0 -2.664638,-0.0558 -3.982421,-0.13867 z"
   id="path36" /><path
   d="M 46.107353,165.87683 H 41.125599 V 126.87844 H 41.001984 L 27.2561,165.87683 H 21.878857 L 8.1947787,126.24278 H 8.0093565 v 39.63405 H 3.0276029 v -46.59466 h 8.2575451 l 11.428108,32.9913 c 1.194943,3.6657 1.885126,5.96471 2.070548,6.89703 h 0.123614 c 0.556267,-1.80107 1.359763,-4.29078 2.410489,-7.46913 l 11.520819,-32.4192 h 7.268627 z"
   style="font-style:normal;font-variant:normal;font-weight:normal;font-stretch:normal;font-size:64.7847px;line-height:1.25;font-family:'Arial Unicode MS';-inkscape-font-specification:'Arial Unicode MS';letter-spacing:0px;word-spacing:0px;fill:#979b9e;fill-opacity:1;stroke-width:2.40696"
   id="path58" /><path
   d="m 92.852319,165.87683 h -6.415645 l -5.315436,-14.17546 h -18.91306 l -5.006399,14.17546 H 51.218785 L 68.617564,119.28217 H 74.37191 Z M 79.29792,146.80671 c -3.708443,-10.08597 -5.799593,-15.80701 -6.273449,-17.16311 -0.473857,-1.37728 -0.99922,-3.21012 -1.576089,-5.49853 h -0.154518 c -0.576869,3.13596 -1.349462,6.03885 -2.317778,8.70867 l -5.068205,13.95297 z m 1.236148,-31.75174 h -5.686279 v -6.51562 h 5.686279 z m -11.434367,0 h -5.717183 v -6.51562 h 5.717183 z"
   style="font-style:normal;font-variant:normal;font-weight:normal;font-stretch:normal;font-size:64.7847px;line-height:1.25;font-family:'Arial Unicode MS';-inkscape-font-specification:'Arial Unicode MS';letter-spacing:0px;word-spacing:0px;fill:#979b9e;fill-opacity:1;stroke-width:2.40696"
   id="path60" /><path
   d="m 132.95405,165.87683 h -5.96999 c -0.67595,-6.83236 -0.62894,-16.78452 -4.58848,-18.67129 -3.38061,-1.20741 -8.01017,-1.88129 -11.26685,-1.89265 h -6.92244 v 20.56394 h -5.290783 v -46.59466 h 19.351973 c 2.74012,0 5.03731,0.18011 6.89152,0.54033 1.85422,0.36021 2.98364,1.12302 4.38461,2.28842 1.40097,1.14421 2.4723,2.59565 3.21398,4.35434 0.76229,1.75869 1.14343,3.61273 1.14343,5.56212 -0.1954,6.71806 -4.68812,11.12859 -8.53869,11.68196 0,0 4.6652,1.19038 5.21388,5.1233 z m -28.74776,-25.34701 h 12.85594 c 2.59591,0 4.64585,-0.22249 6.14984,-0.66746 1.52459,-0.46616 2.74013,-1.3561 3.64663,-2.66981 0.90651,-1.31373 1.35977,-3.53363 1.35977,-5.16517 0,-2.11891 -0.75199,-4.41816 -2.25597,-5.90139 -1.50399,-1.48323 -3.98711,-2.28509 -7.4478,-2.22485 h -14.30841 z"
   style="font-style:normal;font-variant:normal;font-weight:normal;font-stretch:normal;font-size:64.7847px;line-height:1.25;font-family:'Arial Unicode MS';-inkscape-font-specification:'Arial Unicode MS';letter-spacing:0px;word-spacing:0px;fill:#979b9e;fill-opacity:1;stroke-width:2.40696"
   id="path62" /><path
   d="m 178.19011,151.09749 q -1.97783,7.85052 -6.92243,11.72811 -4.91368,3.84582 -11.80521,3.84582 -11.12533,0 -16.22444,-7.1513 -5.0682,-7.18308 -5.0682,-17.25846 0,-11.15601 5.96441,-17.44915 5.99532,-6.32492 15.39004,-6.32492 6.61339,0 11.31075,3.4644 4.69736,3.46441 6.58249,10.13895 l -5.8717,1.43026 q -1.48338,-4.86289 -4.51194,-7.31021 -3.02856,-2.44733 -7.57141,-2.44733 -7.41688,0 -11.24894,5.0218 -3.83206,4.99 -3.83206,13.41264 0,9.72575 4.01748,14.4615 4.04838,4.73574 10.53816,4.73574 5.31544,0 8.62212,-2.95586 3.33762,-2.95587 4.66647,-8.89938 z"
   style="font-style:normal;font-variant:normal;font-weight:normal;font-stretch:normal;font-size:64.7847px;line-height:1.25;font-family:'Arial Unicode MS';-inkscape-font-specification:'Arial Unicode MS';letter-spacing:0px;word-spacing:0px;fill:#979b9e;fill-opacity:1;stroke-width:2.40696"
   id="path64" /><path
   d="m 220.10955,165.87683 h -5.32169 v -21.93064 h -23.54861 v 21.93064 h -5.29078 v -46.59466 h 5.29078 v 19.13369 h 23.54861 v -19.13369 h 5.32169 z"
   style="font-style:normal;font-variant:normal;font-weight:normal;font-stretch:normal;font-size:64.7847px;line-height:1.25;font-family:'Arial Unicode MS';-inkscape-font-specification:'Arial Unicode MS';letter-spacing:0px;word-spacing:0px;fill:#979b9e;fill-opacity:1;stroke-width:2.40696"
   id="path66" /><path
   d="m 263.75485,165.87683 h -33.48728 v -46.59466 h 32.43655 v 5.17808 h -26.7935 v 14.59128 h 25.0629 v 5.53032 h -25.0629 v 16.11691 h 27.84423 z"
   style="font-style:normal;font-variant:normal;font-weight:normal;font-stretch:normal;font-size:64.7847px;line-height:1.25;font-family:'Arial Unicode MS';-inkscape-font-specification:'Arial Unicode MS';letter-spacing:0px;word-spacing:0px;fill:#979b9e;fill-opacity:1;stroke-width:2.40696"
   id="path68" /><path
   d="m 303.43255,165.87683 h -5.09306 l -23.31996,-36.58284 h -0.47587 v 36.58284 h -4.98176 v -46.59466 h 5.41441 l 23.31996,36.58284 h 0.12362 v -36.58284 h 5.01266 z"
   style="font-style:normal;font-variant:normal;font-weight:normal;font-stretch:normal;font-size:64.7847px;line-height:1.25;font-family:'Arial Unicode MS';-inkscape-font-specification:'Arial Unicode MS';letter-spacing:0px;word-spacing:0px;fill:#979b9e;fill-opacity:1;stroke-width:2.40696"
   id="path70" /><ellipse
   style="opacity:1;fill:#979b9e;fill-opacity:1;stroke-width:1.03636;stroke-linecap:round;stroke-linejoin:round;stop-color:#000000"
   id="path130"
   cx="155.30612"
   cy="9.9589748"
   rx="7.0989966"
   ry="6.969924" /><ellipse
   style="opacity:1;fill:#979b9e;fill-opacity:1;stroke-width:0.898021;stroke-linecap:round;stroke-linejoin:round;stop-color:#000000"
   id="ellipse147"
   cx="186.31752"
   cy="33.004105"
   rx="6.3517337"
   ry="5.84903" /><ellipse
   style="opacity:1;fill:#979b9e;fill-opacity:1;stroke-width:0.898021;stroke-linecap:round;stroke-linejoin:round;stop-color:#000000"
   id="path130-2"
   cx="124.5438"
   cy="33.004105"
   rx="6.3517337"
   ry="5.84903" /></svg>
